<?xml version="1.0" encoding="UTF-8"?>
<svg xmlns="http://www.w3.org/2000/svg" width="564" height="117" viewBox="0 0 564 117" fill="none">
  <path d="M0.120502 0.358453C10.8778 0.223808 22.0021 0.399034 32.7876 0.430389C47.622 21.2186 68.8944 48.3376 85.1143 68.3517C84.9225 45.8802 85.0977 22.8798 85.2931 0.39534L116.79 0.456807L116.735 84.6831C116.728 89.2402 116.965 112.027 116.409 114.383L115.177 114.892L85.7627 114.868C68.734 93.1363 47.3294 66.5103 31.5269 44.2755C31.1778 67.4922 31.4962 91.5611 31.4833 114.85L0 114.833C0.7585 77.5162 0.122346 37.8506 0.120502 0.358453Z" fill="#FEFEFE"></path>
  <path d="M255.834 0.403076L255.818 41.3621C281.373 15.6548 324.111 34.8341 325.611 69.7791C326.238 84.229 323.091 93.8825 313.44 104.637C312.93 105.141 312.408 105.626 311.867 106.091C294.509 121.096 269.839 121.076 254.506 103.202L254.504 114.868L226.259 114.852L226.258 0.338623L255.834 0.403076ZM296.266 70.5789C295.018 59.3526 284.951 51.2358 273.715 52.4001C262.363 53.5769 254.142 63.7792 255.403 75.1267C256.665 86.4736 266.928 94.6202 278.263 93.2722C289.474 91.9387 297.514 81.806 296.266 70.5789Z" fill="#FEFEFE"></path>
  <path fill-rule="evenodd" clip-rule="evenodd" d="M511.277 29.0622C522.519 29.0186 528.876 31.3759 536.713 39.1472L536.767 31.1394C545.09 30.8547 554.802 31.0878 563.315 31.0251L563.284 114.926C553.621 114.812 543.793 114.901 534.125 114.903L534.063 104.174C521.045 119.749 498.087 120.286 481.577 110.166C477.612 107.231 475.049 104.164 472.916 99.6911C470.051 93.7053 469.72 86.8128 472.007 80.5798C478.442 63.3718 504.184 58.612 519.877 62.3845C523.835 63.335 529.275 65.4937 533.074 66.9773C532.822 65.4752 532.397 62.2977 531.85 60.9919C524.019 42.3248 498.597 50.2377 485.486 55.8337C482.726 49.7618 479.339 43.2815 476.34 37.2693C488.282 31.6271 496.033 29.9457 508.96 29.0954C509.734 29.0764 510.503 29.0653 511.277 29.0622ZM521.216 97.112C545.496 87.591 528.101 76.4281 509.372 77.5046C489.008 83.7088 502.383 102.717 521.216 97.112Z" fill="#FEFEFE"></path>
  <path fill-rule="evenodd" clip-rule="evenodd" d="M171.874 29.0646C193.994 29.0794 212.543 40.6615 217.632 62.9171C219.066 69.1914 218.873 74.2971 218.78 80.6457C197.345 80.2528 174.83 80.4892 153.356 80.6232C158.618 98.4712 180.631 100.237 191.964 87.339C197.068 90.1358 200.869 92.0052 206.195 94.3556L213.556 97.8478C196.963 120.518 159.459 122.999 138.618 105.491C130.275 98.4578 125.102 88.3705 124.257 77.4894C121.91 48.1186 142.697 31.1854 170.259 29.0871C170.797 29.0717 171.335 29.064 171.874 29.0646ZM189.977 63.8722C186.482 53.1807 180.938 48.6234 169.333 49.2609C159.42 51.1293 156.19 54.4581 152.993 63.9113L174.939 64.0324L189.977 63.8722Z" fill="#FEFEFE"></path>
  <path d="M393.55 31.1412L422.95 31.1208L422.999 67.333L422.974 114.86L395.406 114.85L395.228 101.839C379.8 126.106 337.222 119.776 333.7 91.772C331.487 74.1673 332.667 49.3551 332.729 31.2149C342.441 31.0735 352.503 31.2075 362.239 31.2057C362.307 40.9118 362.288 50.6186 362.184 60.3241C362.128 69.0723 360.481 83.4597 368.035 89.654C373.457 94.1022 383.617 93.3078 388.516 88.3628C392.88 83.9595 393.833 77.8919 393.698 71.9079C393.667 58.3192 393.618 44.7299 393.55 31.1412Z" fill="#FEFEFE"></path>
  <path d="M462.19 0C462.245 0.0516447 462.319 0.0916021 462.368 0.155543C463.837 2.19612 463.038 103.395 463.032 114.863L434.794 114.849L434.376 114.531C433.381 112.106 433.934 20.2902 433.922 9.04518C441.328 7.77558 455.226 2.96158 462.19 0Z" fill="#FEFEFE"></path>
  <path fill-rule="evenodd" clip-rule="evenodd" d="M174.731 6.15295C191.316 6.98022 198.891 14.0228 202.579 29.0602C194.332 22.6791 183.605 19.4176 171.874 19.4098C171.335 19.4092 170.797 19.4169 170.258 19.4323C162.285 20.0393 154.879 21.8904 148.436 24.9225C154.567 11.721 159.905 7.36523 174.731 6.15295Z" fill="#D100C2"></path>
</svg>
