<?xml version="1.0" encoding="UTF-8"?> <svg xmlns="http://www.w3.org/2000/svg" width="24" height="25" viewBox="0 0 24 25" fill="none"><path d="M7.9033 16.4027C7.71965 16.1578 7.57496 15.9742 7.47478 15.8517C7.43026 15.8963 7.39687 15.9519 7.38574 16.0187C7.36904 16.0855 7.35791 16.1578 7.35791 16.2357C7.35791 16.6698 7.59165 17.1095 8.07026 17.5603C8.54887 18.011 9.01635 18.2336 9.47826 18.2336C9.76765 18.2336 10.0237 18.139 10.2351 17.9443C10.4466 17.755 10.5523 17.5213 10.5523 17.2486C10.5523 17.2041 10.5468 17.1429 10.5357 17.065C10.5245 16.9926 10.5078 16.9147 10.4856 16.8312C10.5635 16.8535 10.6247 16.8702 10.6859 16.8813C10.7471 16.8924 10.8083 16.898 10.8751 16.898C10.9419 16.898 11.0031 16.8869 11.0588 16.8646C11.1144 16.8423 11.1701 16.8034 11.2313 16.7533V16.8535C11.2313 17.449 11.3203 17.922 11.5096 18.2782C11.6932 18.6343 11.9492 18.8236 12.272 18.8458L12.2943 18.7456V18.6677C12.2943 18.5843 12.233 18.3728 12.1217 18.0333C12.0049 17.6938 11.9492 17.3989 11.9492 17.1596C11.9492 16.7644 12.0828 16.347 12.3499 15.9018C12.617 15.4622 12.9732 15.0782 13.4129 14.7554C13.6188 14.6107 13.9137 14.4604 14.3033 14.3102C14.6929 14.1599 14.9489 14.0263 15.0713 13.9095C15.049 13.7592 15.0045 13.6423 14.9433 13.5644C14.8821 13.4865 14.7986 13.4476 14.6984 13.4476H14.2477C13.001 13.4476 12.0995 13.3363 11.543 13.1136C10.9864 12.8855 10.7082 12.5293 10.7082 12.0284C10.7082 11.817 10.7638 11.6667 10.8751 11.5776C10.9864 11.4886 11.1757 11.4441 11.4372 11.4441C12.3833 11.4441 13.2904 11.5387 14.1586 11.739C15.0268 11.9338 15.6111 12.1564 15.9117 12.4069C16.0786 12.5404 16.201 12.7519 16.2734 13.0413C16.3457 13.3307 16.3847 13.7203 16.3847 14.21C16.3847 15.8183 15.9005 17.1484 14.9377 18.217C13.975 19.2799 12.7784 19.8142 11.3482 19.8142C10.5746 19.8142 9.86226 19.6583 9.22226 19.3467C8.58226 19.035 8.048 18.5898 7.61391 18.011C7.32452 17.6382 7.10748 17.2653 6.95722 16.898C6.80696 16.5251 6.73461 16.1912 6.73461 15.8907C6.73461 15.5178 6.84035 15.1895 7.05739 14.9168C7.26887 14.6441 7.50817 14.505 7.76417 14.505C7.88104 14.505 8.03687 14.5884 8.23165 14.761C8.42643 14.9335 8.66574 15.2062 8.9607 15.579C9.2167 15.9018 9.42261 16.1912 9.5673 16.4472C9.712 16.7032 9.78435 16.8869 9.78435 16.9982C9.78435 17.0928 9.7287 17.1818 9.61739 17.2709C9.50609 17.3599 9.38365 17.4044 9.24452 17.4044C8.8327 17.4044 8.38748 17.0705 7.9033 16.4027Z" fill="white"></path><path d="M11.1089 15.9408C11.0087 16.0576 10.8918 16.1133 10.7694 16.1133C10.6024 16.1133 10.3743 15.9964 10.0849 15.746C9.80104 15.5011 9.49496 15.1672 9.17217 14.7331C8.86609 14.338 8.62122 13.9651 8.43756 13.6145C8.25391 13.2639 8.16487 13.0023 8.16487 12.8243C8.16487 12.6517 8.25391 12.4736 8.44313 12.2789C8.63235 12.0841 8.7993 11.9895 8.95513 11.9895C9.14991 11.9895 9.35026 12.0785 9.56174 12.2677C9.77878 12.4514 9.99583 12.7296 10.2129 13.097C10.5134 13.5923 10.7638 14.0931 10.9642 14.5996C11.1645 15.1116 11.2647 15.4343 11.2647 15.5735C11.2647 15.707 11.209 15.8295 11.1089 15.9408Z" fill="white"></path><path d="M10.6581 7.37591L11.849 10.8096C11.5667 10.7783 11.358 10.7616 11.2184 10.7505C11.2094 10.7498 11.2008 10.7491 11.1923 10.7484C11.1464 10.7464 11.1054 10.7444 11.0697 10.7427C11.0061 10.7396 10.9593 10.7373 10.9308 10.7373C10.7917 10.7373 10.6803 10.754 10.6024 10.7874C10.519 10.8208 10.4577 10.882 10.4132 10.9599C9.90122 9.60756 9.51722 8.51121 9.26122 7.67643C9.00522 6.84165 8.87722 6.2573 8.87722 5.91782C8.87722 5.71747 8.9273 5.56165 9.02191 5.44478C9.11652 5.32791 9.23896 5.26669 9.39478 5.26669C9.59513 5.26669 9.77878 5.40026 9.94574 5.66739C10.1127 5.93452 10.352 6.50773 10.6581 7.37591Z" fill="white"></path><path d="M12.1941 14.0375C12.4779 14.0876 12.7729 14.121 13.0901 14.1376C12.8786 14.2768 12.6727 14.4382 12.4779 14.6107C12.2831 14.7943 12.0995 14.9947 11.9214 15.2117C11.8657 14.9891 11.7878 14.7554 11.6988 14.5216C11.6097 14.2879 11.504 14.0542 11.3871 13.8204C11.6431 13.915 11.9103 13.9874 12.1941 14.0375Z" fill="white"></path><path d="M15.6946 7.88234C15.4219 8.75052 15.0379 9.84687 14.5482 11.1825L13.1624 10.9432L14.2588 7.76547C14.5148 7.01417 14.7485 6.46321 14.96 6.12373C15.177 5.78426 15.383 5.61173 15.5889 5.61173C15.7503 5.61173 15.8783 5.67295 15.9673 5.78982C16.0619 5.90669 16.1064 6.07365 16.1064 6.28513C16.1064 6.47991 15.9673 7.01417 15.6946 7.88234Z" fill="white"></path><path fill-rule="evenodd" clip-rule="evenodd" d="M5 0.543213C2.23858 0.543213 0 2.78179 0 5.54321V19.5432C0 22.3046 2.23858 24.5432 5 24.5432H19C21.7614 24.5432 24 22.3046 24 19.5432V5.54321C24 2.78179 21.7614 0.543213 19 0.543213H5ZM16.7409 12.201C16.4682 11.7669 16.0007 11.4886 15.344 11.3662C15.8393 9.986 16.2122 8.86182 16.457 7.99921C16.7019 7.14217 16.8243 6.55226 16.8243 6.22947C16.8243 5.80095 16.713 5.46147 16.4904 5.21104C16.2678 4.9606 15.9673 4.8326 15.5944 4.8326C14.832 4.8326 13.9249 6.35747 12.8675 9.40721C12.7945 9.61772 12.7286 9.80417 12.6712 9.96655C12.6148 10.1261 12.5666 10.2625 12.528 10.3756C12.4334 10.0917 12.2943 9.68547 12.1106 9.15678C11.0532 6.07921 10.185 4.54321 9.49496 4.54321C9.09426 4.54321 8.77148 4.67678 8.53774 4.93834C8.304 5.21104 8.18713 5.56721 8.18713 6.02356C8.18713 6.35191 8.31513 6.95295 8.57113 7.82113C8.82713 8.6893 9.23896 9.92478 9.80661 11.5164C9.61739 11.4107 9.44487 11.3328 9.30017 11.2827C9.15548 11.2326 9.01635 11.2103 8.88278 11.2103C8.57113 11.2103 8.24835 11.3829 7.89774 11.7279C7.54713 12.073 7.37461 12.4124 7.37461 12.7408C7.37461 12.8354 7.40243 12.969 7.45252 13.147C7.50261 13.3251 7.58052 13.5422 7.69183 13.7982C7.10748 13.9206 6.67896 14.1543 6.40626 14.4994C6.13357 14.8444 6 15.3342 6 15.963C6 16.5251 6.13357 17.0761 6.40626 17.6159C6.66783 18.1502 7.06296 18.6622 7.59165 19.1463C8.05357 19.586 8.60452 19.931 9.24452 20.1759C9.88452 20.4208 10.5468 20.5432 11.2257 20.5432C12.951 20.5432 14.3757 19.9533 15.4831 18.779C16.5906 17.5992 17.1471 16.091 17.1471 14.2434C17.1471 13.314 17.0136 12.635 16.7409 12.201Z" fill="white"></path></svg> 