<?xml version="1.0" encoding="UTF-8"?> <svg xmlns="http://www.w3.org/2000/svg" width="1680" height="661" viewBox="0 0 1680 661" fill="none"><path d="M1084.72 88.501C1085.87 88.501 1085.87 86.6333 1084.72 86.6333C1083.57 86.777 1083.57 88.501 1084.72 88.501Z" fill="#230537"></path><path d="M1101.96 106.461C1103.11 106.461 1103.11 104.593 1101.96 104.593C1100.81 104.736 1100.81 106.461 1101.96 106.461Z" fill="#230537"></path><path d="M1127.82 77.7252C1128.97 77.7252 1128.97 75.8574 1127.82 75.8574C1126.67 76.0011 1126.67 77.7252 1127.82 77.7252Z" fill="#230537"></path><path d="M1116.33 82.0347C1117.48 82.0347 1117.48 80.167 1116.33 80.167C1115.18 80.3107 1115.18 82.0347 1116.33 82.0347Z" fill="#230537"></path><path d="M1134.29 102.151C1135.44 102.151 1135.44 100.283 1134.29 100.283C1133.14 100.427 1133.14 102.151 1134.29 102.151Z" fill="#230537"></path><path d="M1136.88 197.693C1138.03 197.693 1138.03 195.825 1136.88 195.825C1135.73 195.969 1135.73 197.693 1136.88 197.693Z" fill="#230537"></path><path d="M1189.6 179.59C1190.75 179.59 1190.75 177.723 1189.6 177.723C1188.45 177.723 1188.45 179.59 1189.6 179.59Z" fill="#230537"></path><path d="M1219.34 193.957C1220.49 193.957 1220.49 192.089 1219.34 192.089C1218.19 192.089 1218.19 193.957 1219.34 193.957Z" fill="#230537"></path><path d="M1220.2 214.934C1221.35 214.934 1221.35 213.066 1220.2 213.066C1219.05 213.21 1219.05 214.934 1220.2 214.934Z" fill="#230537"></path><path d="M1192.48 210.191C1193.62 210.191 1193.62 208.323 1192.48 208.323C1191.33 208.323 1191.33 210.191 1192.48 210.191Z" fill="#230537"></path><path d="M1173.37 195.825C1174.52 195.825 1174.52 193.957 1173.37 193.957C1172.22 193.957 1172.22 195.825 1173.37 195.825Z" fill="#230537"></path><path d="M1637.86 391.218C1639.01 391.218 1639.01 389.351 1637.86 389.351C1636.71 389.351 1636.71 391.218 1637.86 391.218Z" fill="#230537"></path><path d="M1617.74 393.087C1618.89 393.087 1618.89 391.219 1617.74 391.219C1616.6 391.362 1616.6 393.087 1617.74 393.087Z" fill="#230537"></path><path d="M1606.25 365.359C1607.4 365.359 1607.4 363.491 1606.25 363.491C1605.1 363.491 1605.1 365.359 1606.25 365.359Z" fill="#230537"></path><path d="M1634.99 357.744C1636.14 357.744 1636.14 355.876 1634.99 355.876C1633.84 355.876 1633.84 357.744 1634.99 357.744Z" fill="#230537"></path><path d="M1663.72 330.877C1664.87 330.877 1664.87 329.009 1663.72 329.009C1662.57 329.009 1662.57 330.877 1663.72 330.877Z" fill="#230537"></path><path d="M1649.35 361.477C1650.5 361.477 1650.5 359.609 1649.35 359.609C1648.2 359.753 1648.2 361.477 1649.35 361.477Z" fill="#230537"></path><path d="M1621.62 377.856C1622.77 377.856 1622.77 375.988 1621.62 375.988C1620.47 375.988 1620.47 377.856 1621.62 377.856Z" fill="#230537"></path><path d="M1422.35 414.207C1423.5 414.207 1423.5 412.339 1422.35 412.339C1421.2 412.339 1421.2 414.207 1422.35 414.207Z" fill="#230537"></path><path d="M1463.59 363.491C1464.74 363.491 1464.74 361.623 1463.59 361.623C1462.44 361.623 1462.44 363.491 1463.59 363.491Z" fill="#230537"></path><path d="M1515.31 353.864C1516.46 353.864 1516.46 351.996 1515.31 351.996C1514.16 351.996 1514.16 353.864 1515.31 353.864Z" fill="#230537"></path><path d="M1544.04 339.497C1545.19 339.497 1545.19 337.629 1544.04 337.629C1542.89 337.629 1542.89 339.497 1544.04 339.497Z" fill="#230537"></path><path d="M1561.28 394.09C1562.43 394.09 1562.43 392.223 1561.28 392.223C1560.13 392.223 1560.13 394.09 1561.28 394.09Z" fill="#230537"></path><path d="M1523.93 408.46C1525.08 408.46 1525.08 406.592 1523.93 406.592C1522.78 406.592 1522.78 408.46 1523.93 408.46Z" fill="#230537"></path><path d="M1492.32 393.087C1493.47 393.087 1493.47 391.219 1492.32 391.219C1491.17 391.362 1491.17 393.087 1492.32 393.087Z" fill="#230537"></path><path d="M1562.14 161.343C1563.29 161.343 1563.29 159.475 1562.14 159.475C1560.99 159.475 1560.99 161.343 1562.14 161.343Z" fill="#230537"></path><path d="M1607.26 151.717C1608.41 151.717 1608.41 149.849 1607.26 149.849C1606.11 149.993 1606.11 151.717 1607.26 151.717Z" fill="#230537"></path><path d="M1654.09 108.617C1655.24 108.617 1655.24 106.749 1654.09 106.749C1652.95 106.893 1652.95 108.617 1654.09 108.617Z" fill="#230537"></path><path d="M1634.99 86.6353C1636.14 86.6353 1636.14 84.7676 1634.99 84.7676C1633.84 84.7676 1633.84 86.6353 1634.99 86.6353Z" fill="#230537"></path><path d="M1633.98 101.002C1635.13 101.002 1635.13 99.1338 1633.98 99.1338C1632.83 99.1338 1632.83 101.002 1633.98 101.002Z" fill="#230537"></path><path d="M1644.61 99.1329C1645.76 99.1329 1645.76 97.2651 1644.61 97.2651C1643.46 97.2651 1643.46 99.1329 1644.61 99.1329Z" fill="#230537"></path><path d="M1639.73 129.736C1640.88 129.736 1640.88 127.868 1639.73 127.868C1638.58 127.868 1638.58 129.736 1639.73 129.736Z" fill="#230537"></path><path d="M1622.49 132.608C1623.64 132.608 1623.64 130.74 1622.49 130.74C1621.34 130.74 1621.34 132.608 1622.49 132.608Z" fill="#230537"></path><path d="M1615.88 111.489C1617.03 111.489 1617.03 109.621 1615.88 109.621C1614.73 109.765 1614.73 111.489 1615.88 111.489Z" fill="#230537"></path><path d="M1596.62 144.102C1597.77 144.102 1597.77 142.235 1596.62 142.235C1595.47 142.235 1595.47 144.102 1596.62 144.102Z" fill="#230537"></path><path d="M1574.64 159.477C1575.79 159.477 1575.79 157.609 1574.64 157.609C1573.49 157.609 1573.49 159.477 1574.64 159.477Z" fill="#230537"></path><path d="M1569.9 143.098C1571.05 143.098 1571.05 141.23 1569.9 141.23C1568.75 141.374 1568.75 143.098 1569.9 143.098Z" fill="#230537"></path><path d="M1595.76 129.736C1596.91 129.736 1596.91 127.868 1595.76 127.868C1594.62 127.868 1594.62 129.736 1595.76 129.736Z" fill="#230537"></path><path d="M1585.13 135.482C1586.28 135.482 1586.28 133.614 1585.13 133.614C1583.98 133.614 1583.98 135.482 1585.13 135.482Z" fill="#230537"></path><path d="M1286.29 111.489C1287.44 111.489 1287.44 109.621 1286.29 109.621C1285.14 109.765 1285.14 111.489 1286.29 111.489Z" fill="#230537"></path><path d="M1327.53 90.5137C1328.68 90.5137 1328.68 88.646 1327.53 88.646C1326.38 88.646 1326.38 90.5137 1327.53 90.5137Z" fill="#230537"></path><path d="M1274.51 29.3082C1275.66 29.3082 1275.66 27.4404 1274.51 27.4404C1273.36 27.4404 1273.22 29.3082 1274.51 29.3082Z" fill="#230537"></path><path d="M1339.02 26.2906C1340.17 26.2906 1340.17 24.4229 1339.02 24.4229C1337.87 24.4229 1337.87 26.2906 1339.02 26.2906Z" fill="#230537"></path><path d="M1352.38 36.7808C1353.53 36.7808 1353.53 34.9131 1352.38 34.9131C1351.23 35.0568 1351.23 36.7808 1352.38 36.7808Z" fill="#230537"></path><path d="M1356.26 50.2847C1357.41 50.2847 1357.41 48.417 1356.26 48.417C1355.11 48.417 1355.11 50.2847 1356.26 50.2847Z" fill="#230537"></path><path d="M1343.76 63.647C1344.91 63.647 1344.91 61.7793 1343.76 61.7793C1342.61 61.7793 1342.61 63.647 1343.76 63.647Z" fill="#230537"></path><path d="M1340.89 45.4C1342.04 45.4 1342.04 43.5322 1340.89 43.5322C1339.74 43.6759 1339.74 45.4 1340.89 45.4Z" fill="#230537"></path><path d="M1313.16 68.3878C1314.31 68.3878 1314.31 66.52 1313.16 66.52C1312.01 66.6637 1312.01 68.3878 1313.16 68.3878Z" fill="#230537"></path><path d="M1299.8 93.3869C1300.95 93.3869 1300.95 91.6628 1299.8 91.6628C1298.65 91.5191 1298.65 93.3869 1299.8 93.3869Z" fill="#230537"></path><path d="M1123.51 130.598C1125.81 130.598 1125.81 127.006 1123.51 127.006C1121.21 127.006 1121.21 130.598 1123.51 130.598Z" fill="#230537"></path><path d="M1191.47 229.299C1193.77 229.299 1193.77 225.707 1191.47 225.707C1189.17 225.707 1189.17 229.299 1191.47 229.299Z" fill="#230537"></path><path d="M1613.87 479.29C1616.17 479.29 1616.17 475.698 1613.87 475.698C1611.57 475.698 1611.57 479.29 1613.87 479.29Z" fill="#230537"></path><path d="M1531.54 507.018C1533.84 507.018 1533.84 503.426 1531.54 503.426C1529.24 503.426 1529.24 507.018 1531.54 507.018Z" fill="#230537"></path><path d="M1472.21 408.458C1474.51 408.458 1474.51 404.866 1472.21 404.866C1469.91 404.866 1469.91 408.458 1472.21 408.458Z" fill="#230537"></path><path d="M1512.44 277.145C1514.73 277.145 1514.73 273.553 1512.44 273.553C1510.14 273.553 1510.14 277.145 1512.44 277.145Z" fill="#230537"></path><path d="M1650.36 208.181C1652.66 208.181 1652.66 204.589 1650.36 204.589C1648.06 204.589 1648.06 208.181 1650.36 208.181Z" fill="#230537"></path><path d="M1199.23 488.916C1201.53 488.916 1201.53 485.324 1199.23 485.324C1196.93 485.324 1196.93 488.916 1199.23 488.916Z" fill="#230537"></path><path d="M1145.5 648.822C1147.79 648.822 1147.79 645.23 1145.5 645.23C1143.2 645.23 1143.2 648.822 1145.5 648.822Z" fill="#230537"></path><path d="M1043.06 468.8C1045.36 468.8 1045.36 465.208 1043.06 465.208C1040.76 465.208 1040.76 468.8 1043.06 468.8Z" fill="#230537"></path><path d="M1067.05 201.429C1070.5 201.429 1070.5 195.97 1067.05 195.97C1063.6 196.113 1063.46 201.429 1067.05 201.429Z" fill="#230537"></path><path d="M1584.27 228.293C1587.72 228.293 1587.72 222.834 1584.27 222.834C1580.82 222.834 1580.68 228.293 1584.27 228.293Z" fill="#230537"></path><path d="M1552.66 102.725C1556.11 102.725 1556.11 97.2651 1552.66 97.2651C1549.21 97.4088 1549.07 102.725 1552.66 102.725Z" fill="#230537"></path><path d="M1225.95 124.849C1229.4 124.849 1229.4 119.39 1225.95 119.39C1222.5 119.39 1222.5 124.849 1225.95 124.849Z" fill="#230537"></path><path d="M1202.96 378.576C1206.41 378.576 1206.41 373.116 1202.96 373.116C1199.52 373.26 1199.52 378.576 1202.96 378.576Z" fill="#230537"></path><path d="M1558.41 615.203C1561.86 615.203 1561.86 609.743 1558.41 609.743C1554.96 609.887 1554.82 615.203 1558.41 615.203Z" fill="#230537"></path><path d="M1677.08 635.319C1680.53 635.319 1680.53 629.859 1677.08 629.859C1673.63 630.003 1673.63 635.319 1677.08 635.319Z" fill="#230537"></path><path d="M1043.05 312.487C1046.5 312.487 1046.5 307.027 1043.05 307.027C1039.61 307.171 1039.61 312.487 1043.05 312.487Z" fill="#230537"></path><path d="M1114.89 427.423C1119.49 427.423 1119.49 420.239 1114.89 420.239C1110.3 420.239 1110.3 427.423 1114.89 427.423Z" fill="#230537"></path><path d="M1364.88 473.398C1369.48 473.398 1369.48 466.215 1364.88 466.215C1360.28 466.215 1360.28 473.398 1364.88 473.398Z" fill="#230537"></path><path d="M1453.96 61.491C1458.56 61.491 1458.56 54.3074 1453.96 54.3074C1449.36 54.3074 1449.36 61.491 1453.96 61.491Z" fill="#230537"></path><path d="M1227.96 587.619C1229.11 587.619 1229.11 585.751 1227.96 585.751C1226.81 585.751 1226.81 587.619 1227.96 587.619Z" fill="#230537"></path><path d="M1206.84 575.119C1207.99 575.119 1207.99 573.251 1206.84 573.251C1205.69 573.251 1205.69 575.119 1206.84 575.119Z" fill="#230537"></path><path d="M1132.13 506.155C1133.28 506.155 1133.28 504.287 1132.13 504.287C1130.98 504.287 1130.98 506.155 1132.13 506.155Z" fill="#230537"></path><path d="M1105.27 594.228C1106.42 594.228 1106.42 592.36 1105.27 592.36C1104.12 592.504 1104.12 594.228 1105.27 594.228Z" fill="#230537"></path><path d="M1090.04 657.442C1091.19 657.442 1091.19 655.574 1090.04 655.574C1088.89 655.718 1088.89 657.442 1090.04 657.442Z" fill="#230537"></path><path d="M1058.43 627.845C1059.58 627.845 1059.58 625.978 1058.43 625.978C1057.28 625.978 1057.28 627.845 1058.43 627.845Z" fill="#230537"></path><path d="M1080.41 632.588C1081.56 632.588 1081.56 630.721 1080.41 630.721C1079.26 630.721 1079.26 632.588 1080.41 632.588Z" fill="#230537"></path><path d="M1064.18 660.317C1065.33 660.317 1065.33 658.449 1064.18 658.449C1063.03 658.593 1063.03 660.317 1064.18 660.317Z" fill="#230537"></path><path d="M1028.69 620.087C1029.84 620.087 1029.84 618.22 1028.69 618.22C1027.54 618.363 1027.54 620.087 1028.69 620.087Z" fill="#230537"></path><path d="M1097.65 326.136C1098.8 326.136 1098.8 324.269 1097.65 324.269C1096.5 324.269 1096.5 326.136 1097.65 326.136Z" fill="#230537"></path><path d="M1123.51 329.871C1124.66 329.871 1124.66 328.003 1123.51 328.003C1122.37 328.147 1122.37 329.871 1123.51 329.871Z" fill="#230537"></path><path d="M1072.8 405.585C1073.95 405.585 1073.95 403.717 1072.8 403.717C1071.65 403.717 1071.65 405.585 1072.8 405.585Z" fill="#230537"></path><path d="M1027.68 391.218C1028.83 391.218 1028.83 389.351 1027.68 389.351C1026.53 389.351 1026.53 391.218 1027.68 391.218Z" fill="#230537"></path><path d="M1054.55 378.719C1055.7 378.719 1055.7 376.852 1054.55 376.852C1053.4 376.995 1053.4 378.719 1054.55 378.719Z" fill="#230537"></path><path d="M1050.67 408.46C1051.82 408.46 1051.82 406.592 1050.67 406.592C1049.52 406.592 1049.52 408.46 1050.67 408.46Z" fill="#230537"></path><path d="M1009.58 102.007C1010.73 102.007 1010.73 100.14 1009.58 100.14C1008.43 100.14 1008.43 102.007 1009.58 102.007Z" fill="#230537"></path><path d="M991.335 18.6783C992.484 18.6783 992.484 16.8105 991.335 16.8105C990.185 16.8105 990.185 18.6783 991.335 18.6783Z" fill="#230537"></path><path d="M1426.23 574.112C1427.38 574.112 1427.38 572.244 1426.23 572.244C1425.08 572.388 1425.08 574.112 1426.23 574.112Z" fill="#230537"></path><path d="M1447.21 536.758C1448.36 536.758 1448.36 534.891 1447.21 534.891C1446.06 535.034 1446.06 536.758 1447.21 536.758Z" fill="#230537"></path><path d="M1407.98 524.403C1409.13 524.403 1409.13 522.535 1407.98 522.535C1406.83 522.535 1406.83 524.403 1407.98 524.403Z" fill="#230537"></path><path d="M1606.25 295.388C1607.4 295.388 1607.4 293.521 1606.25 293.521C1605.1 293.664 1605.1 295.388 1606.25 295.388Z" fill="#230537"></path><path d="M1658.98 264.789C1660.13 264.789 1660.13 262.921 1658.98 262.921C1657.83 262.921 1657.83 264.789 1658.98 264.789Z" fill="#230537"></path><path d="M1479.82 154.589C1480.97 154.589 1480.97 152.722 1479.82 152.722C1478.67 152.865 1478.67 154.589 1479.82 154.589Z" fill="#230537"></path><path d="M1660.84 39.6529C1661.99 39.6529 1661.99 37.7852 1660.84 37.7852C1659.7 37.9288 1659.7 39.6529 1660.84 39.6529Z" fill="#230537"></path><path d="M1550.65 190.078C1551.8 190.078 1551.8 188.21 1550.65 188.21C1549.5 188.21 1549.5 190.078 1550.65 190.078Z" fill="#230537"></path><path d="M1508.55 170.968C1509.7 170.968 1509.7 169.101 1508.55 169.101C1507.4 169.101 1507.4 170.968 1508.55 170.968Z" fill="#230537"></path><path d="M156.961 332.974C158.017 332.037 156.599 330.438 155.543 331.375C154.596 332.435 155.906 333.911 156.961 332.974Z" fill="#230537"></path><path d="M186.438 334.302C187.494 333.365 186.075 331.766 185.019 332.703C184.073 333.763 185.382 335.239 186.438 334.302Z" fill="#230537"></path><path d="M188.371 288.628C189.426 287.692 188.008 286.093 186.952 287.029C186.005 288.089 187.315 289.565 188.371 288.628Z" fill="#230537"></path><path d="M181.085 301.681C182.141 300.744 180.723 299.145 179.667 300.082C178.72 301.142 180.03 302.618 181.085 301.681Z" fill="#230537"></path><path d="M212.859 304.268C213.915 303.331 212.496 301.732 211.44 302.669C210.493 303.728 211.803 305.205 212.859 304.268Z" fill="#230537"></path><path d="M287.799 383.956C288.855 383.02 287.437 381.421 286.381 382.357C285.434 383.417 286.743 384.893 287.799 383.956Z" fill="#230537"></path><path d="M322.486 325.492C323.542 324.555 322.123 322.956 321.067 323.893C320.011 324.829 321.43 326.428 322.486 325.492Z" fill="#230537"></path><path d="M360.715 313.557C361.771 312.62 360.353 311.021 359.297 311.958C358.241 312.895 359.659 314.494 360.715 313.557Z" fill="#230537"></path><path d="M377.439 330.813C378.495 329.876 377.076 328.277 376.02 329.214C375.074 330.273 376.383 331.749 377.439 330.813Z" fill="#230537"></path><path d="M348.368 349.351C349.423 348.414 348.005 346.815 346.949 347.752C345.893 348.689 347.312 350.288 348.368 349.351Z" fill="#230537"></path><path d="M319.903 352.621C320.959 351.685 319.54 350.086 318.484 351.022C317.428 351.959 318.847 353.558 319.903 352.621Z" fill="#230537"></path><path d="M894.984 141.39C896.04 140.454 894.621 138.855 893.565 139.791C892.509 140.728 893.928 142.327 894.984 141.39Z" fill="#230537"></path><path d="M877.926 159.381C878.982 158.445 877.564 156.846 876.508 157.782C875.561 158.842 876.871 160.318 877.926 159.381Z" fill="#230537"></path><path d="M846.307 145.008C847.363 144.072 845.944 142.473 844.889 143.409C843.833 144.346 845.251 145.945 846.307 145.008Z" fill="#230537"></path><path d="M866.92 115.074C867.976 114.137 866.558 112.538 865.502 113.475C864.446 114.412 865.865 116.011 866.92 115.074Z" fill="#230537"></path><path d="M872.909 68.6556C873.965 67.719 872.547 66.1199 871.491 67.0566C870.435 67.9932 871.854 69.5922 872.909 68.6556Z" fill="#230537"></path><path d="M882.957 106.565C884.012 105.628 882.594 104.029 881.538 104.966C880.591 106.025 881.901 107.501 882.957 106.565Z" fill="#230537"></path><path d="M869.922 143.181C870.978 142.245 869.56 140.646 868.504 141.582C867.448 142.519 868.867 144.118 869.922 143.181Z" fill="#230537"></path><path d="M714.478 336.689C715.534 335.752 714.115 334.153 713.06 335.09C712.004 336.027 713.422 337.626 714.478 336.689Z" fill="#230537"></path><path d="M713.837 259.667C714.893 258.731 713.475 257.132 712.419 258.068C711.363 259.005 712.782 260.604 713.837 259.667Z" fill="#230537"></path><path d="M754.036 209.277C755.091 208.34 753.673 206.741 752.617 207.678C751.561 208.614 752.98 210.213 754.036 209.277Z" fill="#230537"></path><path d="M769.52 173.562C770.576 172.626 769.157 171.027 768.101 171.963C767.046 172.9 768.464 174.499 769.52 173.562Z" fill="#230537"></path><path d="M826.824 206.252C827.879 205.316 826.461 203.717 825.405 204.653C824.349 205.59 825.768 207.189 826.824 206.252Z" fill="#230537"></path><path d="M803.421 248.993C804.477 248.057 803.058 246.458 802.003 247.394C800.947 248.331 802.365 249.93 803.421 248.993Z" fill="#230537"></path><path d="M762.71 261.589C763.766 260.653 762.348 259.054 761.292 259.99C760.345 261.05 761.655 262.526 762.71 261.589Z" fill="#230537"></path><path d="M650.842 6.2878C651.898 5.35116 650.48 3.75211 649.424 4.68875C648.368 5.6254 649.786 7.22444 650.842 6.2878Z" fill="#230537"></path><path d="M726.317 85.0132C727.373 84.0766 725.954 82.4775 724.898 83.4141C723.952 84.4737 725.261 85.9498 726.317 85.0132Z" fill="#230537"></path><path d="M553.91 205.7C554.965 204.763 553.547 203.164 552.491 204.101C551.544 205.16 552.854 206.636 553.91 205.7Z" fill="#230537"></path><path d="M519.429 125.242C520.485 124.305 519.066 122.706 518.011 123.642C516.955 124.579 518.373 126.178 519.429 125.242Z" fill="#230537"></path><path d="M802.463 156.849C803.519 155.912 802.101 154.313 801.045 155.25C799.989 156.186 801.408 157.785 802.463 156.849Z" fill="#230537"></path><path d="M589.827 162.596C590.883 161.659 589.465 160.06 588.409 160.997C587.353 161.933 588.772 163.532 589.827 162.596Z" fill="#230537"></path><path d="M690.398 202.825C691.453 201.888 690.035 200.289 688.979 201.226C687.923 202.162 689.342 203.761 690.398 202.825Z" fill="#230537"></path><path d="M760.797 109.438C761.853 108.501 760.435 106.902 759.379 107.839C758.432 108.898 759.741 110.374 760.797 109.438Z" fill="#230537"></path><path d="M825.45 50.5333C826.505 49.5968 825.087 47.9977 824.031 48.9343C822.975 49.8709 824.394 51.4699 825.45 50.5333Z" fill="#230537"></path><path d="M401.619 207.134C402.674 206.197 401.256 204.598 400.2 205.535C399.144 206.472 400.563 208.071 401.619 207.134Z" fill="#230537"></path><path d="M502.188 185.583C503.244 184.647 501.825 183.048 500.77 183.984C499.823 185.044 501.132 186.52 502.188 185.583Z" fill="#230537"></path><path d="M951.88 184.146C952.936 183.21 951.518 181.61 950.462 182.547C949.406 183.484 950.825 185.083 951.88 184.146Z" fill="#230537"></path><path d="M608.506 218.628C609.562 217.692 608.144 216.093 607.088 217.029C606.032 217.966 607.45 219.565 608.506 218.628Z" fill="#230537"></path><path d="M359.584 188.393C360.64 187.457 359.222 185.858 358.166 186.794C357.219 187.854 358.528 189.33 359.584 188.393Z" fill="#230537"></path><path d="M381.53 136.834C382.585 135.898 381.167 134.299 380.111 135.235C379.055 136.172 380.474 137.771 381.53 136.834Z" fill="#230537"></path><path d="M286.345 127.637C287.401 126.701 285.983 125.102 284.927 126.038C283.871 126.975 285.158 128.691 286.345 127.637Z" fill="#230537"></path><path d="M343.31 72.4852C344.366 71.5485 342.947 69.9495 341.892 70.8861C340.836 71.8228 342.254 73.4218 343.31 72.4852Z" fill="#230537"></path><path d="M363.55 70.5764C364.606 69.6397 363.188 68.0407 362.132 68.9773C361.185 70.037 362.494 71.513 363.55 70.5764Z" fill="#230537"></path><path d="M377.372 78.9771C378.428 78.0405 377.009 76.4414 375.953 77.3781C374.897 78.3147 376.316 79.9138 377.372 78.9771Z" fill="#230537"></path><path d="M376.038 100.603C377.093 99.6666 375.675 98.0676 374.619 99.0042C373.563 99.9408 374.982 101.54 376.038 100.603Z" fill="#230537"></path><path d="M359.54 87.3237C360.595 86.3871 359.177 84.788 358.121 85.7246C357.174 86.7843 358.484 88.2603 359.54 87.3237Z" fill="#230537"></path><path d="M351.527 129.599C352.583 128.662 351.164 127.063 350.108 128C349.161 129.06 350.471 130.536 351.527 129.599Z" fill="#230537"></path><path d="M358.239 161.891C359.295 160.954 357.985 159.478 356.929 160.415C355.765 161.228 357.183 162.828 358.239 161.891Z" fill="#230537"></path><path d="M224.567 337.404C226.678 335.531 223.95 332.455 221.839 334.329C219.727 336.202 222.455 339.277 224.567 337.404Z" fill="#230537"></path><path d="M361.956 366.53C364.068 364.657 361.34 361.581 359.228 363.455C357.117 365.328 359.845 368.403 361.956 366.53Z" fill="#230537"></path><path d="M939.833 236.343C941.945 234.47 939.217 231.395 937.105 233.268C934.994 235.141 937.722 238.216 939.833 236.343Z" fill="#230537"></path><path d="M885.273 327.169C887.384 325.296 884.656 322.221 882.545 324.094C880.433 325.968 883.161 329.043 885.273 327.169Z" fill="#230537"></path><path d="M755.909 291.142C758.021 289.269 755.293 286.194 753.181 288.067C751.07 289.94 753.798 293.015 755.909 291.142Z" fill="#230537"></path><path d="M693.128 145.937C695.24 144.064 692.512 140.989 690.4 142.862C688.289 144.735 691.016 147.81 693.128 145.937Z" fill="#230537"></path><path d="M566.258 582.475C568.37 580.602 565.642 577.527 563.53 579.4C561.419 581.273 564.147 584.348 566.258 582.475Z" fill="#230537"></path><path d="M749.969 577.114C752.081 575.241 749.353 572.165 747.241 574.039C745.129 575.912 747.857 578.987 749.969 577.114Z" fill="#230537"></path><path d="M456.878 657.571C458.99 655.697 456.262 652.622 454.15 654.495C452.038 656.369 454.766 659.444 456.878 657.571Z" fill="#230537"></path><path d="M226.496 444.057C229.664 441.247 225.517 436.573 222.35 439.383C219.292 442.316 223.197 446.984 226.496 444.057Z" fill="#230537"></path><path d="M722.015 45.5773C725.183 42.7674 721.036 38.0932 717.869 40.9031C714.701 43.713 718.716 48.5042 722.015 45.5773Z" fill="#230537"></path><path d="M457.702 98.1133C460.869 95.3034 456.722 90.6293 453.555 93.4392C450.497 96.372 454.402 101.04 457.702 98.1133Z" fill="#230537"></path><path d="M314.302 249.006C317.469 246.197 313.322 241.522 310.155 244.332C306.988 247.142 311.134 251.816 314.302 249.006Z" fill="#230537"></path><path d="M485.888 484.964C489.056 482.155 484.909 477.48 481.742 480.29C478.683 483.223 482.721 487.774 485.888 484.964Z" fill="#230537"></path><path d="M992.117 397.9C995.284 395.09 991.138 390.416 987.97 393.226C984.912 396.159 988.817 400.827 992.117 397.9Z" fill="#230537"></path><path d="M1116.41 318.41C1119.57 315.6 1115.43 310.926 1112.26 313.736C1109.2 316.668 1113.24 321.22 1116.41 318.41Z" fill="#230537"></path><path d="M288.804 558.692C291.972 555.882 287.825 551.208 284.658 554.018C281.599 556.951 285.637 561.502 288.804 558.692Z" fill="#230537"></path><path d="M442.086 598.555C446.31 594.809 440.854 588.659 436.63 592.405C432.407 596.152 437.863 602.302 442.086 598.555Z" fill="#230537"></path><path d="M706.644 434.198C710.867 430.451 705.411 424.301 701.188 428.048C696.965 431.794 702.421 437.944 706.644 434.198Z" fill="#230537"></path><path d="M475.626 8.9603C479.85 5.21379 474.394 -0.936392 470.17 2.81011C465.947 6.55662 471.403 12.7068 475.626 8.9603Z" fill="#230537"></path><path d="M667.62 643.562C668.676 642.625 667.257 641.026 666.201 641.963C665.145 642.899 666.564 644.498 667.62 643.562Z" fill="#230537"></path><path d="M638.727 650.072C639.783 649.135 638.364 647.536 637.308 648.473C636.253 649.409 637.671 651.008 638.727 650.072Z" fill="#230537"></path><path d="M517.722 651.909C518.778 650.973 517.359 649.374 516.304 650.31C515.248 651.247 516.666 652.846 517.722 651.909Z" fill="#230537"></path><path d="M832.634 605.106C833.69 604.169 832.271 602.57 831.216 603.507C830.269 604.567 831.578 606.043 832.634 605.106Z" fill="#230537"></path><path d="M772.291 652.517C773.347 651.58 771.929 649.981 770.873 650.918C769.926 651.978 771.236 653.454 772.291 652.517Z" fill="#230537"></path><path d="M203.35 554.821C204.406 553.884 202.987 552.285 201.932 553.222C200.985 554.281 202.294 555.757 203.35 554.821Z" fill="#230537"></path><path d="M349.322 525.886C350.378 524.949 348.959 523.35 347.903 524.287C346.847 525.224 348.266 526.823 349.322 525.886Z" fill="#230537"></path><path d="M375.913 508.01C376.969 507.073 375.551 505.474 374.495 506.411C373.548 507.471 374.858 508.947 375.913 508.01Z" fill="#230537"></path><path d="M386.831 614.161C387.887 613.225 386.469 611.626 385.413 612.562C384.357 613.499 385.776 615.098 386.831 614.161Z" fill="#230537"></path><path d="M334.48 638.623C335.536 637.687 334.117 636.088 333.061 637.024C332.006 637.961 333.424 639.56 334.48 638.623Z" fill="#230537"></path><path d="M349.666 606.028C350.721 605.092 349.303 603.493 348.247 604.429C347.3 605.489 348.61 606.965 349.666 606.028Z" fill="#230537"></path><path d="M368.691 634.652C369.747 633.715 368.328 632.116 367.272 633.053C366.217 633.989 367.635 635.588 368.691 634.652Z" fill="#230537"></path><path d="M167.434 448.503C168.49 447.567 167.071 445.968 166.015 446.904C164.96 447.841 166.378 449.44 167.434 448.503Z" fill="#230537"></path><path d="M188.985 243.053C190.041 242.116 188.622 240.517 187.567 241.454C186.511 242.39 187.929 243.989 188.985 243.053Z" fill="#230537"></path><path d="M839.492 470.433C840.548 469.496 839.129 467.897 838.073 468.834C837.126 469.894 838.436 471.37 839.492 470.433Z" fill="#230537"></path><path d="M830.389 421.358C831.445 420.421 830.027 418.822 828.971 419.758C828.024 420.818 829.334 422.294 830.389 421.358Z" fill="#230537"></path><path d="M784.974 442.742C786.03 441.805 784.611 440.206 783.556 441.143C782.5 442.079 783.918 443.678 784.974 442.742Z" fill="#230537"></path><path d="M793.168 85.1057C794.224 84.169 792.805 82.57 791.749 83.5066C790.802 84.5663 792.112 86.0423 793.168 85.1057Z" fill="#230537"></path><path d="M611.378 133.861C612.434 132.924 611.016 131.325 609.96 132.262C608.904 133.198 610.323 134.797 611.378 133.861Z" fill="#230537"></path><path d="M570.092 67.5898C571.147 66.6532 569.729 65.0541 568.673 65.9908C567.726 67.0504 569.036 68.5264 570.092 67.5898Z" fill="#230537"></path><path d="M658.791 115.185C659.846 114.249 658.428 112.65 657.372 113.586C656.425 114.646 657.735 116.122 658.791 115.185Z" fill="#230537"></path><path d="M662.108 40.2552C663.164 39.3186 661.745 37.7196 660.689 38.6562C659.634 39.5928 661.052 41.1919 662.108 40.2552Z" fill="#230537"></path><path d="M608.926 58.1993C609.982 57.2627 608.564 55.6636 607.508 56.6003C606.452 57.5369 607.87 59.136 608.926 58.1993Z" fill="#230537"></path></svg> 