<?xml version="1.0" encoding="UTF-8"?> <svg xmlns="http://www.w3.org/2000/svg" width="1680" height="664" viewBox="0 0 1680 664" fill="none"><path d="M1084.72 88.501C1085.87 88.501 1085.87 86.6333 1084.72 86.6333C1083.57 86.777 1083.57 88.501 1084.72 88.501Z" fill="white" fill-opacity="0.5"></path><path d="M1101.96 106.461C1103.11 106.461 1103.11 104.593 1101.96 104.593C1100.81 104.737 1100.81 106.461 1101.96 106.461Z" fill="white" fill-opacity="0.5"></path><path d="M1127.82 77.7254C1128.97 77.7254 1128.97 75.8577 1127.82 75.8577C1126.67 76.0013 1126.67 77.7254 1127.82 77.7254Z" fill="white" fill-opacity="0.5"></path><path d="M1116.33 82.035C1117.48 82.035 1117.48 80.1672 1116.33 80.1672C1115.18 80.3109 1115.18 82.035 1116.33 82.035Z" fill="white" fill-opacity="0.5"></path><path d="M1134.29 102.151C1135.44 102.151 1135.44 100.283 1134.29 100.283C1133.14 100.427 1133.14 102.151 1134.29 102.151Z" fill="white" fill-opacity="0.5"></path><path d="M1136.88 197.693C1138.03 197.693 1138.03 195.825 1136.88 195.825C1135.73 195.969 1135.73 197.693 1136.88 197.693Z" fill="white" fill-opacity="0.5"></path><path d="M1189.6 179.59C1190.75 179.59 1190.75 177.722 1189.6 177.722C1188.45 177.722 1188.45 179.59 1189.6 179.59Z" fill="white" fill-opacity="0.5"></path><path d="M1219.34 193.957C1220.49 193.957 1220.49 192.089 1219.34 192.089C1218.19 192.089 1218.19 193.957 1219.34 193.957Z" fill="white" fill-opacity="0.5"></path><path d="M1220.2 214.934C1221.35 214.934 1221.35 213.066 1220.2 213.066C1219.05 213.21 1219.05 214.934 1220.2 214.934Z" fill="white" fill-opacity="0.5"></path><path d="M1192.48 210.191C1193.62 210.191 1193.62 208.323 1192.48 208.323C1191.33 208.323 1191.33 210.191 1192.48 210.191Z" fill="white" fill-opacity="0.5"></path><path d="M1173.37 195.825C1174.52 195.825 1174.52 193.957 1173.37 193.957C1172.22 193.957 1172.22 195.825 1173.37 195.825Z" fill="white" fill-opacity="0.5"></path><path d="M1637.86 391.219C1639.01 391.219 1639.01 389.351 1637.86 389.351C1636.71 389.351 1636.71 391.219 1637.86 391.219Z" fill="white" fill-opacity="0.5"></path><path d="M1617.74 393.087C1618.89 393.087 1618.89 391.219 1617.74 391.219C1616.6 391.363 1616.6 393.087 1617.74 393.087Z" fill="white" fill-opacity="0.5"></path><path d="M1606.25 365.359C1607.4 365.359 1607.4 363.491 1606.25 363.491C1605.1 363.491 1605.1 365.359 1606.25 365.359Z" fill="white" fill-opacity="0.5"></path><path d="M1634.99 357.743C1636.14 357.743 1636.14 355.876 1634.99 355.876C1633.84 355.876 1633.84 357.743 1634.99 357.743Z" fill="white" fill-opacity="0.5"></path><path d="M1663.72 330.877C1664.87 330.877 1664.87 329.009 1663.72 329.009C1662.57 329.009 1662.57 330.877 1663.72 330.877Z" fill="white" fill-opacity="0.5"></path><path d="M1649.35 361.478C1650.5 361.478 1650.5 359.61 1649.35 359.61C1648.2 359.754 1648.2 361.478 1649.35 361.478Z" fill="white" fill-opacity="0.5"></path><path d="M1621.62 377.856C1622.77 377.856 1622.77 375.989 1621.62 375.989C1620.47 375.989 1620.47 377.856 1621.62 377.856Z" fill="white" fill-opacity="0.5"></path><path d="M1422.35 414.207C1423.5 414.207 1423.5 412.339 1422.35 412.339C1421.2 412.339 1421.2 414.207 1422.35 414.207Z" fill="white" fill-opacity="0.5"></path><path d="M1463.59 363.491C1464.74 363.491 1464.74 361.623 1463.59 361.623C1462.44 361.623 1462.44 363.491 1463.59 363.491Z" fill="white" fill-opacity="0.5"></path><path d="M1515.31 353.864C1516.46 353.864 1516.46 351.997 1515.31 351.997C1514.16 351.997 1514.16 353.864 1515.31 353.864Z" fill="white" fill-opacity="0.5"></path><path d="M1544.04 339.496C1545.19 339.496 1545.19 337.628 1544.04 337.628C1542.89 337.628 1542.89 339.496 1544.04 339.496Z" fill="white" fill-opacity="0.5"></path><path d="M1561.28 394.091C1562.43 394.091 1562.43 392.223 1561.28 392.223C1560.13 392.223 1560.13 394.091 1561.28 394.091Z" fill="white" fill-opacity="0.5"></path><path d="M1523.93 408.46C1525.08 408.46 1525.08 406.592 1523.93 406.592C1522.78 406.592 1522.78 408.46 1523.93 408.46Z" fill="white" fill-opacity="0.5"></path><path d="M1492.32 393.087C1493.47 393.087 1493.47 391.219 1492.32 391.219C1491.17 391.363 1491.17 393.087 1492.32 393.087Z" fill="white" fill-opacity="0.5"></path><path d="M1562.14 161.343C1563.29 161.343 1563.29 159.475 1562.14 159.475C1560.99 159.475 1560.99 161.343 1562.14 161.343Z" fill="white" fill-opacity="0.5"></path><path d="M1607.26 151.717C1608.41 151.717 1608.41 149.849 1607.26 149.849C1606.11 149.993 1606.11 151.717 1607.26 151.717Z" fill="white" fill-opacity="0.5"></path><path d="M1654.09 108.617C1655.24 108.617 1655.24 106.749 1654.09 106.749C1652.95 106.892 1652.95 108.617 1654.09 108.617Z" fill="white" fill-opacity="0.5"></path><path d="M1634.99 86.6351C1636.14 86.6351 1636.14 84.7673 1634.99 84.7673C1633.84 84.7673 1633.84 86.6351 1634.99 86.6351Z" fill="white" fill-opacity="0.5"></path><path d="M1633.98 101.001C1635.13 101.001 1635.13 99.1335 1633.98 99.1335C1632.83 99.1335 1632.83 101.001 1633.98 101.001Z" fill="white" fill-opacity="0.5"></path><path d="M1644.61 99.1329C1645.76 99.1329 1645.76 97.2651 1644.61 97.2651C1643.46 97.2651 1643.46 99.1329 1644.61 99.1329Z" fill="white" fill-opacity="0.5"></path><path d="M1639.73 129.736C1640.88 129.736 1640.88 127.868 1639.73 127.868C1638.58 127.868 1638.58 129.736 1639.73 129.736Z" fill="white" fill-opacity="0.5"></path><path d="M1622.49 132.608C1623.64 132.608 1623.64 130.74 1622.49 130.74C1621.34 130.74 1621.34 132.608 1622.49 132.608Z" fill="white" fill-opacity="0.5"></path><path d="M1615.88 111.489C1617.03 111.489 1617.03 109.621 1615.88 109.621C1614.73 109.765 1614.73 111.489 1615.88 111.489Z" fill="white" fill-opacity="0.5"></path><path d="M1596.62 144.102C1597.77 144.102 1597.77 142.235 1596.62 142.235C1595.47 142.235 1595.47 144.102 1596.62 144.102Z" fill="white" fill-opacity="0.5"></path><path d="M1574.64 159.477C1575.79 159.477 1575.79 157.609 1574.64 157.609C1573.49 157.609 1573.49 159.477 1574.64 159.477Z" fill="white" fill-opacity="0.5"></path><path d="M1569.9 143.098C1571.05 143.098 1571.05 141.23 1569.9 141.23C1568.75 141.374 1568.75 143.098 1569.9 143.098Z" fill="white" fill-opacity="0.5"></path><path d="M1595.76 129.736C1596.91 129.736 1596.91 127.868 1595.76 127.868C1594.62 127.868 1594.62 129.736 1595.76 129.736Z" fill="white" fill-opacity="0.5"></path><path d="M1585.13 135.482C1586.28 135.482 1586.28 133.615 1585.13 133.615C1583.98 133.615 1583.98 135.482 1585.13 135.482Z" fill="white" fill-opacity="0.5"></path><path d="M1286.29 111.489C1287.44 111.489 1287.44 109.621 1286.29 109.621C1285.14 109.765 1285.14 111.489 1286.29 111.489Z" fill="white" fill-opacity="0.5"></path><path d="M1327.53 90.5137C1328.68 90.5137 1328.68 88.646 1327.53 88.646C1326.38 88.646 1326.38 90.5137 1327.53 90.5137Z" fill="white" fill-opacity="0.5"></path><path d="M1274.51 29.3082C1275.66 29.3082 1275.66 27.4404 1274.51 27.4404C1273.36 27.4404 1273.22 29.3082 1274.51 29.3082Z" fill="white" fill-opacity="0.5"></path><path d="M1339.02 26.2908C1340.17 26.2908 1340.17 24.4231 1339.02 24.4231C1337.87 24.4231 1337.87 26.2908 1339.02 26.2908Z" fill="white" fill-opacity="0.5"></path><path d="M1352.38 36.7808C1353.53 36.7808 1353.53 34.9131 1352.38 34.9131C1351.23 35.0568 1351.23 36.7808 1352.38 36.7808Z" fill="white" fill-opacity="0.5"></path><path d="M1356.26 50.285C1357.41 50.285 1357.41 48.4172 1356.26 48.4172C1355.11 48.4172 1355.11 50.285 1356.26 50.285Z" fill="white" fill-opacity="0.5"></path><path d="M1343.76 63.6473C1344.91 63.6473 1344.91 61.7795 1343.76 61.7795C1342.61 61.7795 1342.61 63.6473 1343.76 63.6473Z" fill="white" fill-opacity="0.5"></path><path d="M1340.89 45.4002C1342.04 45.4002 1342.04 43.5325 1340.89 43.5325C1339.74 43.6761 1339.74 45.4002 1340.89 45.4002Z" fill="white" fill-opacity="0.5"></path><path d="M1313.16 68.3878C1314.31 68.3878 1314.31 66.52 1313.16 66.52C1312.01 66.6637 1312.01 68.3878 1313.16 68.3878Z" fill="white" fill-opacity="0.5"></path><path d="M1299.8 93.3869C1300.95 93.3869 1300.95 91.6628 1299.8 91.6628C1298.65 91.5191 1298.65 93.3869 1299.8 93.3869Z" fill="white" fill-opacity="0.5"></path><path d="M1123.51 130.598C1125.81 130.598 1125.81 127.007 1123.51 127.007C1121.21 127.007 1121.21 130.598 1123.51 130.598Z" fill="white" fill-opacity="0.5"></path><path d="M1191.47 229.299C1193.77 229.299 1193.77 225.707 1191.47 225.707C1189.17 225.707 1189.17 229.299 1191.47 229.299Z" fill="white" fill-opacity="0.5"></path><path d="M1613.87 479.29C1616.17 479.29 1616.17 475.698 1613.87 475.698C1611.57 475.698 1611.57 479.29 1613.87 479.29Z" fill="white" fill-opacity="0.5"></path><path d="M1531.54 507.017C1533.84 507.017 1533.84 503.426 1531.54 503.426C1529.24 503.426 1529.24 507.017 1531.54 507.017Z" fill="white" fill-opacity="0.5"></path><path d="M1472.21 408.458C1474.51 408.458 1474.51 404.867 1472.21 404.867C1469.91 404.867 1469.91 408.458 1472.21 408.458Z" fill="white" fill-opacity="0.5"></path><path d="M1512.44 277.144C1514.73 277.144 1514.73 273.552 1512.44 273.552C1510.14 273.552 1510.14 277.144 1512.44 277.144Z" fill="white" fill-opacity="0.5"></path><path d="M1650.36 208.181C1652.66 208.181 1652.66 204.589 1650.36 204.589C1648.06 204.589 1648.06 208.181 1650.36 208.181Z" fill="white" fill-opacity="0.5"></path><path d="M1199.23 488.916C1201.53 488.916 1201.53 485.324 1199.23 485.324C1196.93 485.324 1196.93 488.916 1199.23 488.916Z" fill="white" fill-opacity="0.5"></path><path d="M1145.5 648.822C1147.79 648.822 1147.79 645.23 1145.5 645.23C1143.2 645.23 1143.2 648.822 1145.5 648.822Z" fill="white" fill-opacity="0.5"></path><path d="M1043.06 468.8C1045.36 468.8 1045.36 465.208 1043.06 465.208C1040.76 465.208 1040.76 468.8 1043.06 468.8Z" fill="white" fill-opacity="0.5"></path><path d="M1067.05 201.43C1070.5 201.43 1070.5 195.97 1067.05 195.97C1063.6 196.114 1063.46 201.43 1067.05 201.43Z" fill="white" fill-opacity="0.5"></path><path d="M1584.27 228.294C1587.72 228.294 1587.72 222.834 1584.27 222.834C1580.82 222.834 1580.68 228.294 1584.27 228.294Z" fill="white" fill-opacity="0.5"></path><path d="M1552.66 102.725C1556.11 102.725 1556.11 97.2651 1552.66 97.2651C1549.21 97.4088 1549.07 102.725 1552.66 102.725Z" fill="white" fill-opacity="0.5"></path><path d="M1225.95 124.849C1229.4 124.849 1229.4 119.39 1225.95 119.39C1222.5 119.39 1222.5 124.849 1225.95 124.849Z" fill="white" fill-opacity="0.5"></path><path d="M1202.96 378.576C1206.41 378.576 1206.41 373.116 1202.96 373.116C1199.52 373.26 1199.52 378.576 1202.96 378.576Z" fill="white" fill-opacity="0.5"></path><path d="M1558.41 615.202C1561.86 615.202 1561.86 609.743 1558.41 609.743C1554.96 609.887 1554.82 615.202 1558.41 615.202Z" fill="white" fill-opacity="0.5"></path><path d="M1677.08 635.318C1680.53 635.318 1680.53 629.859 1677.08 629.859C1673.63 630.003 1673.63 635.318 1677.08 635.318Z" fill="white" fill-opacity="0.5"></path><path d="M1043.05 312.487C1046.5 312.487 1046.5 307.028 1043.05 307.028C1039.61 307.172 1039.61 312.487 1043.05 312.487Z" fill="white" fill-opacity="0.5"></path><path d="M1114.89 427.423C1119.49 427.423 1119.49 420.239 1114.89 420.239C1110.3 420.239 1110.3 427.423 1114.89 427.423Z" fill="white" fill-opacity="0.5"></path><path d="M1364.88 473.398C1369.48 473.398 1369.48 466.215 1364.88 466.215C1360.28 466.215 1360.28 473.398 1364.88 473.398Z" fill="white" fill-opacity="0.5"></path><path d="M1453.96 61.491C1458.56 61.491 1458.56 54.3074 1453.96 54.3074C1449.36 54.3074 1449.36 61.491 1453.96 61.491Z" fill="white" fill-opacity="0.5"></path><path d="M1227.96 587.619C1229.11 587.619 1229.11 585.751 1227.96 585.751C1226.81 585.751 1226.81 587.619 1227.96 587.619Z" fill="white" fill-opacity="0.5"></path><path d="M1206.84 575.118C1207.99 575.118 1207.99 573.251 1206.84 573.251C1205.69 573.251 1205.69 575.118 1206.84 575.118Z" fill="white" fill-opacity="0.5"></path><path d="M1132.13 506.155C1133.28 506.155 1133.28 504.287 1132.13 504.287C1130.98 504.287 1130.98 506.155 1132.13 506.155Z" fill="white" fill-opacity="0.5"></path><path d="M1105.27 594.228C1106.42 594.228 1106.42 592.36 1105.27 592.36C1104.12 592.504 1104.12 594.228 1105.27 594.228Z" fill="white" fill-opacity="0.5"></path><path d="M1090.04 657.442C1091.19 657.442 1091.19 655.575 1090.04 655.575C1088.89 655.718 1088.89 657.442 1090.04 657.442Z" fill="white" fill-opacity="0.5"></path><path d="M1058.43 627.845C1059.58 627.845 1059.58 625.977 1058.43 625.977C1057.28 625.977 1057.28 627.845 1058.43 627.845Z" fill="white" fill-opacity="0.5"></path><path d="M1080.41 632.588C1081.56 632.588 1081.56 630.721 1080.41 630.721C1079.26 630.721 1079.26 632.588 1080.41 632.588Z" fill="white" fill-opacity="0.5"></path><path d="M1064.18 660.316C1065.33 660.316 1065.33 658.449 1064.18 658.449C1063.03 658.592 1063.03 660.316 1064.18 660.316Z" fill="white" fill-opacity="0.5"></path><path d="M1028.69 620.087C1029.84 620.087 1029.84 618.22 1028.69 618.22C1027.54 618.363 1027.54 620.087 1028.69 620.087Z" fill="white" fill-opacity="0.5"></path><path d="M1097.65 326.137C1098.8 326.137 1098.8 324.269 1097.65 324.269C1096.5 324.269 1096.5 326.137 1097.65 326.137Z" fill="white" fill-opacity="0.5"></path><path d="M1123.51 329.87C1124.66 329.87 1124.66 328.003 1123.51 328.003C1122.37 328.146 1122.37 329.87 1123.51 329.87Z" fill="white" fill-opacity="0.5"></path><path d="M1072.8 405.585C1073.95 405.585 1073.95 403.717 1072.8 403.717C1071.65 403.717 1071.65 405.585 1072.8 405.585Z" fill="white" fill-opacity="0.5"></path><path d="M1027.68 391.219C1028.83 391.219 1028.83 389.351 1027.68 389.351C1026.53 389.351 1026.53 391.219 1027.68 391.219Z" fill="white" fill-opacity="0.5"></path><path d="M1054.55 378.719C1055.7 378.719 1055.7 376.851 1054.55 376.851C1053.4 376.995 1053.4 378.719 1054.55 378.719Z" fill="white" fill-opacity="0.5"></path><path d="M1050.67 408.46C1051.82 408.46 1051.82 406.592 1050.67 406.592C1049.52 406.592 1049.52 408.46 1050.67 408.46Z" fill="white" fill-opacity="0.5"></path><path d="M1009.58 102.008C1010.73 102.008 1010.73 100.14 1009.58 100.14C1008.43 100.14 1008.43 102.008 1009.58 102.008Z" fill="white" fill-opacity="0.5"></path><path d="M991.335 18.678C992.484 18.678 992.484 16.8103 991.335 16.8103C990.185 16.8103 990.185 18.678 991.335 18.678Z" fill="white" fill-opacity="0.5"></path><path d="M1426.23 574.112C1427.38 574.112 1427.38 572.245 1426.23 572.245C1425.08 572.388 1425.08 574.112 1426.23 574.112Z" fill="white" fill-opacity="0.5"></path><path d="M1447.21 536.758C1448.36 536.758 1448.36 534.89 1447.21 534.89C1446.06 535.034 1446.06 536.758 1447.21 536.758Z" fill="white" fill-opacity="0.5"></path><path d="M1407.98 524.403C1409.13 524.403 1409.13 522.535 1407.98 522.535C1406.83 522.535 1406.83 524.403 1407.98 524.403Z" fill="white" fill-opacity="0.5"></path><path d="M1606.25 295.388C1607.4 295.388 1607.4 293.521 1606.25 293.521C1605.1 293.664 1605.1 295.388 1606.25 295.388Z" fill="white" fill-opacity="0.5"></path><path d="M1658.98 264.788C1660.13 264.788 1660.13 262.921 1658.98 262.921C1657.83 262.921 1657.83 264.788 1658.98 264.788Z" fill="white" fill-opacity="0.5"></path><path d="M1479.82 154.589C1480.97 154.589 1480.97 152.722 1479.82 152.722C1478.67 152.865 1478.67 154.589 1479.82 154.589Z" fill="white" fill-opacity="0.5"></path><path d="M1660.84 39.6529C1661.99 39.6529 1661.99 37.7852 1660.84 37.7852C1659.7 37.9288 1659.7 39.6529 1660.84 39.6529Z" fill="white" fill-opacity="0.5"></path><path d="M1550.65 190.078C1551.8 190.078 1551.8 188.21 1550.65 188.21C1549.5 188.21 1549.5 190.078 1550.65 190.078Z" fill="white" fill-opacity="0.5"></path><path d="M1508.55 170.969C1509.7 170.969 1509.7 169.101 1508.55 169.101C1507.4 169.101 1507.4 170.969 1508.55 170.969Z" fill="white" fill-opacity="0.5"></path><path d="M156.961 337.9C158.017 336.963 156.599 335.364 155.543 336.301C154.596 337.361 155.906 338.837 156.961 337.9Z" fill="white" fill-opacity="0.5"></path><path d="M186.438 339.227C187.494 338.291 186.075 336.692 185.019 337.628C184.073 338.688 185.382 340.164 186.438 339.227Z" fill="white" fill-opacity="0.5"></path><path d="M188.371 293.553C189.426 292.617 188.008 291.018 186.952 291.954C186.005 293.014 187.315 294.49 188.371 293.553Z" fill="white" fill-opacity="0.5"></path><path d="M181.086 306.607C182.141 305.67 180.723 304.071 179.667 305.008C178.72 306.067 180.03 307.543 181.086 306.607Z" fill="white" fill-opacity="0.5"></path><path d="M212.859 309.193C213.914 308.257 212.496 306.658 211.44 307.594C210.493 308.654 211.803 310.13 212.859 309.193Z" fill="white" fill-opacity="0.5"></path><path d="M287.799 388.882C288.855 387.946 287.437 386.347 286.381 387.283C285.434 388.343 286.743 389.819 287.799 388.882Z" fill="white" fill-opacity="0.5"></path><path d="M322.486 330.417C323.542 329.48 322.123 327.881 321.067 328.818C320.011 329.754 321.43 331.353 322.486 330.417Z" fill="white" fill-opacity="0.5"></path><path d="M360.715 318.482C361.771 317.546 360.353 315.947 359.297 316.883C358.241 317.82 359.659 319.419 360.715 318.482Z" fill="white" fill-opacity="0.5"></path><path d="M377.439 335.739C378.495 334.802 377.076 333.203 376.02 334.14C375.074 335.199 376.383 336.675 377.439 335.739Z" fill="white" fill-opacity="0.5"></path><path d="M348.368 354.276C349.423 353.34 348.005 351.741 346.949 352.677C345.893 353.614 347.312 355.213 348.368 354.276Z" fill="white" fill-opacity="0.5"></path><path d="M319.903 357.547C320.959 356.61 319.54 355.011 318.484 355.948C317.428 356.884 318.847 358.483 319.903 357.547Z" fill="white" fill-opacity="0.5"></path><path d="M894.984 146.316C896.04 145.379 894.621 143.78 893.565 144.717C892.509 145.654 893.928 147.253 894.984 146.316Z" fill="white" fill-opacity="0.5"></path><path d="M877.926 164.307C878.982 163.37 877.563 161.771 876.508 162.708C875.561 163.767 876.87 165.243 877.926 164.307Z" fill="white" fill-opacity="0.5"></path><path d="M846.307 149.934C847.363 148.997 845.944 147.398 844.889 148.335C843.833 149.271 845.251 150.87 846.307 149.934Z" fill="white" fill-opacity="0.5"></path><path d="M866.92 120C867.976 119.063 866.558 117.464 865.502 118.4C864.446 119.337 865.865 120.936 866.92 120Z" fill="white" fill-opacity="0.5"></path><path d="M872.909 73.5811C873.965 72.6444 872.547 71.0454 871.491 71.982C870.435 72.9187 871.854 74.5177 872.909 73.5811Z" fill="white" fill-opacity="0.5"></path><path d="M882.957 111.49C884.012 110.553 882.594 108.954 881.538 109.891C880.591 110.951 881.901 112.427 882.957 111.49Z" fill="white" fill-opacity="0.5"></path><path d="M869.922 148.107C870.978 147.17 869.56 145.571 868.504 146.508C867.448 147.445 868.867 149.044 869.922 148.107Z" fill="white" fill-opacity="0.5"></path><path d="M714.478 341.614C715.534 340.678 714.115 339.079 713.059 340.015C712.004 340.952 713.422 342.551 714.478 341.614Z" fill="white" fill-opacity="0.5"></path><path d="M713.837 264.592C714.893 263.656 713.475 262.057 712.419 262.993C711.363 263.93 712.782 265.529 713.837 264.592Z" fill="white" fill-opacity="0.5"></path><path d="M754.036 214.202C755.092 213.266 753.673 211.667 752.617 212.603C751.561 213.54 752.98 215.139 754.036 214.202Z" fill="white" fill-opacity="0.5"></path><path d="M769.52 178.488C770.576 177.551 769.157 175.952 768.101 176.889C767.046 177.825 768.464 179.424 769.52 178.488Z" fill="white" fill-opacity="0.5"></path><path d="M826.824 211.178C827.88 210.241 826.461 208.642 825.405 209.579C824.35 210.516 825.768 212.115 826.824 211.178Z" fill="white" fill-opacity="0.5"></path><path d="M803.421 253.919C804.477 252.982 803.058 251.383 802.003 252.32C800.947 253.257 802.365 254.856 803.421 253.919Z" fill="white" fill-opacity="0.5"></path><path d="M762.71 266.515C763.766 265.578 762.348 263.979 761.292 264.916C760.345 265.976 761.655 267.452 762.71 266.515Z" fill="white" fill-opacity="0.5"></path><path d="M650.842 11.2135C651.898 10.2769 650.48 8.67783 649.424 9.61447C648.368 10.5511 649.786 12.1502 650.842 11.2135Z" fill="white" fill-opacity="0.5"></path><path d="M726.317 89.9386C727.373 89.002 725.954 87.4029 724.898 88.3395C723.952 89.3991 725.261 90.8752 726.317 89.9386Z" fill="white" fill-opacity="0.5"></path><path d="M553.91 210.625C554.965 209.688 553.547 208.089 552.491 209.026C551.544 210.085 552.854 211.561 553.91 210.625Z" fill="white" fill-opacity="0.5"></path><path d="M519.429 130.167C520.485 129.23 519.066 127.631 518.011 128.568C516.955 129.505 518.373 131.104 519.429 130.167Z" fill="white" fill-opacity="0.5"></path><path d="M802.463 161.774C803.519 160.838 802.101 159.238 801.045 160.175C799.989 161.112 801.408 162.711 802.463 161.774Z" fill="white" fill-opacity="0.5"></path><path d="M589.828 167.521C590.883 166.585 589.465 164.986 588.409 165.922C587.353 166.859 588.772 168.458 589.828 167.521Z" fill="white" fill-opacity="0.5"></path><path d="M690.398 207.75C691.453 206.814 690.035 205.215 688.979 206.151C687.923 207.088 689.342 208.687 690.398 207.75Z" fill="white" fill-opacity="0.5"></path><path d="M760.797 114.364C761.853 113.427 760.435 111.828 759.379 112.764C758.432 113.824 759.741 115.3 760.797 114.364Z" fill="white" fill-opacity="0.5"></path><path d="M825.45 55.4588C826.505 54.5223 825.087 52.9232 824.031 53.8598C822.975 54.7963 824.394 56.3954 825.45 55.4588Z" fill="white" fill-opacity="0.5"></path><path d="M401.619 212.06C402.674 211.123 401.256 209.524 400.2 210.461C399.144 211.397 400.563 212.996 401.619 212.06Z" fill="white" fill-opacity="0.5"></path><path d="M502.188 190.509C503.244 189.572 501.825 187.973 500.769 188.91C499.823 189.969 501.132 191.446 502.188 190.509Z" fill="white" fill-opacity="0.5"></path><path d="M951.88 189.072C952.936 188.135 951.518 186.536 950.462 187.473C949.406 188.409 950.825 190.008 951.88 189.072Z" fill="white" fill-opacity="0.5"></path><path d="M608.506 223.554C609.562 222.617 608.144 221.018 607.088 221.955C606.032 222.891 607.45 224.49 608.506 223.554Z" fill="white" fill-opacity="0.5"></path><path d="M359.584 193.319C360.64 192.382 359.221 190.783 358.166 191.72C357.219 192.779 358.528 194.255 359.584 193.319Z" fill="white" fill-opacity="0.5"></path><path d="M381.53 141.76C382.585 140.823 381.167 139.224 380.111 140.161C379.055 141.098 380.474 142.697 381.53 141.76Z" fill="white" fill-opacity="0.5"></path><path d="M286.346 132.563C287.401 131.626 285.983 130.027 284.927 130.964C283.871 131.9 285.158 133.617 286.346 132.563Z" fill="white" fill-opacity="0.5"></path><path d="M343.31 77.4107C344.366 76.474 342.948 74.875 341.892 75.8116C340.836 76.7483 342.254 78.3473 343.31 77.4107Z" fill="white" fill-opacity="0.5"></path><path d="M363.55 75.5018C364.606 74.5651 363.188 72.9661 362.132 73.9027C361.185 74.9624 362.494 76.4384 363.55 75.5018Z" fill="white" fill-opacity="0.5"></path><path d="M377.372 83.9026C378.428 82.966 377.009 81.3669 375.953 82.3036C374.897 83.2402 376.316 84.8393 377.372 83.9026Z" fill="white" fill-opacity="0.5"></path><path d="M376.038 105.529C377.093 104.592 375.675 102.993 374.619 103.93C373.563 104.866 374.982 106.465 376.038 105.529Z" fill="white" fill-opacity="0.5"></path><path d="M359.54 92.2492C360.595 91.3126 359.177 89.7135 358.121 90.6502C357.174 91.7098 358.484 93.1859 359.54 92.2492Z" fill="white" fill-opacity="0.5"></path><path d="M351.527 134.525C352.583 133.588 351.164 131.989 350.108 132.926C349.162 133.985 350.471 135.461 351.527 134.525Z" fill="white" fill-opacity="0.5"></path><path d="M358.239 166.816C359.295 165.88 357.985 164.404 356.929 165.34C355.765 166.154 357.183 167.753 358.239 166.816Z" fill="white" fill-opacity="0.5"></path><path d="M224.567 342.329C226.678 340.456 223.95 337.381 221.839 339.254C219.727 341.127 222.455 344.202 224.567 342.329Z" fill="white" fill-opacity="0.5"></path><path d="M361.956 371.455C364.068 369.582 361.34 366.507 359.228 368.38C357.117 370.253 359.845 373.328 361.956 371.455Z" fill="white" fill-opacity="0.5"></path><path d="M939.833 241.269C941.945 239.395 939.217 236.32 937.105 238.193C934.994 240.067 937.722 243.142 939.833 241.269Z" fill="white" fill-opacity="0.5"></path><path d="M885.273 332.094C887.384 330.221 884.656 327.146 882.545 329.019C880.433 330.893 883.161 333.968 885.273 332.094Z" fill="white" fill-opacity="0.5"></path><path d="M755.909 296.067C758.021 294.194 755.293 291.119 753.181 292.992C751.07 294.865 753.798 297.94 755.909 296.067Z" fill="white" fill-opacity="0.5"></path><path d="M693.128 150.862C695.24 148.989 692.512 145.914 690.4 147.787C688.289 149.66 691.016 152.735 693.128 150.862Z" fill="white" fill-opacity="0.5"></path><path d="M566.258 587.4C568.37 585.527 565.642 582.452 563.53 584.325C561.419 586.199 564.147 589.274 566.258 587.4Z" fill="white" fill-opacity="0.5"></path><path d="M749.969 582.039C752.081 580.166 749.353 577.091 747.241 578.964C745.129 580.837 747.857 583.912 749.969 582.039Z" fill="white" fill-opacity="0.5"></path><path d="M456.878 662.496C458.99 660.623 456.262 657.548 454.15 659.421C452.038 661.294 454.766 664.369 456.878 662.496Z" fill="white" fill-opacity="0.5"></path><path d="M226.496 448.982C229.664 446.173 225.517 441.498 222.35 444.308C219.292 447.241 223.197 451.909 226.496 448.982Z" fill="white" fill-opacity="0.5"></path><path d="M722.015 50.503C725.183 47.6931 721.036 43.019 717.869 45.8289C714.701 48.6388 718.716 53.43 722.015 50.503Z" fill="white" fill-opacity="0.5"></path><path d="M457.702 103.039C460.869 100.229 456.723 95.5548 453.555 98.3647C450.497 101.298 454.402 105.966 457.702 103.039Z" fill="white" fill-opacity="0.5"></path><path d="M314.302 253.932C317.469 251.122 313.323 246.448 310.155 249.258C306.988 252.068 311.134 256.742 314.302 253.932Z" fill="white" fill-opacity="0.5"></path><path d="M485.888 489.89C489.055 487.08 484.909 482.406 481.742 485.216C478.683 488.149 482.721 492.7 485.888 489.89Z" fill="white" fill-opacity="0.5"></path><path d="M992.117 402.825C995.284 400.015 991.138 395.341 987.97 398.151C984.912 401.084 988.817 405.752 992.117 402.825Z" fill="white" fill-opacity="0.5"></path><path d="M1116.41 323.335C1119.57 320.526 1115.43 315.851 1112.26 318.661C1109.2 321.594 1113.24 326.145 1116.41 323.335Z" fill="white" fill-opacity="0.5"></path><path d="M288.804 563.617C291.972 560.807 287.825 556.133 284.658 558.943C281.599 561.876 285.637 566.427 288.804 563.617Z" fill="white" fill-opacity="0.5"></path><path d="M442.086 603.481C446.31 599.734 440.854 593.584 436.63 597.331C432.407 601.077 437.863 607.227 442.086 603.481Z" fill="white" fill-opacity="0.5"></path><path d="M706.644 439.124C710.867 435.377 705.411 429.227 701.188 432.974C696.965 436.72 702.421 442.87 706.644 439.124Z" fill="white" fill-opacity="0.5"></path><path d="M475.626 13.886C479.85 10.1395 474.394 3.98933 470.17 7.73584C465.947 11.4823 471.403 17.6325 475.626 13.886Z" fill="white" fill-opacity="0.5"></path><path d="M667.62 648.487C668.675 647.551 667.257 645.952 666.201 646.888C665.145 647.825 666.564 649.424 667.62 648.487Z" fill="white" fill-opacity="0.5"></path><path d="M638.727 654.997C639.783 654.061 638.364 652.461 637.308 653.398C636.253 654.335 637.671 655.934 638.727 654.997Z" fill="white" fill-opacity="0.5"></path><path d="M517.722 656.836C518.778 655.899 517.359 654.3 516.303 655.236C515.248 656.173 516.666 657.772 517.722 656.836Z" fill="white" fill-opacity="0.5"></path><path d="M832.634 610.031C833.69 609.095 832.271 607.496 831.216 608.432C830.269 609.492 831.578 610.968 832.634 610.031Z" fill="white" fill-opacity="0.5"></path><path d="M772.291 657.442C773.347 656.505 771.929 654.906 770.873 655.843C769.926 656.903 771.236 658.379 772.291 657.442Z" fill="white" fill-opacity="0.5"></path><path d="M203.35 559.746C204.406 558.81 202.987 557.211 201.932 558.147C200.985 559.207 202.294 560.683 203.35 559.746Z" fill="white" fill-opacity="0.5"></path><path d="M349.322 530.811C350.378 529.874 348.959 528.275 347.903 529.212C346.847 530.149 348.266 531.748 349.322 530.811Z" fill="white" fill-opacity="0.5"></path><path d="M375.913 512.936C376.969 511.999 375.551 510.4 374.495 511.337C373.548 512.396 374.858 513.872 375.913 512.936Z" fill="white" fill-opacity="0.5"></path><path d="M386.831 619.087C387.887 618.15 386.469 616.551 385.413 617.488C384.357 618.424 385.776 620.023 386.831 619.087Z" fill="white" fill-opacity="0.5"></path><path d="M334.48 643.549C335.536 642.612 334.117 641.013 333.061 641.95C332.006 642.887 333.424 644.486 334.48 643.549Z" fill="white" fill-opacity="0.5"></path><path d="M349.665 610.954C350.721 610.017 349.303 608.418 348.247 609.355C347.3 610.415 348.61 611.891 349.665 610.954Z" fill="white" fill-opacity="0.5"></path><path d="M368.691 639.577C369.747 638.64 368.328 637.041 367.272 637.978C366.217 638.914 367.635 640.513 368.691 639.577Z" fill="white" fill-opacity="0.5"></path><path d="M167.434 453.429C168.49 452.492 167.071 450.893 166.015 451.83C164.96 452.766 166.378 454.365 167.434 453.429Z" fill="white" fill-opacity="0.5"></path><path d="M188.985 247.978C190.041 247.042 188.622 245.443 187.567 246.379C186.511 247.316 187.929 248.915 188.985 247.978Z" fill="white" fill-opacity="0.5"></path><path d="M839.492 475.358C840.548 474.422 839.129 472.823 838.073 473.759C837.126 474.819 838.436 476.295 839.492 475.358Z" fill="white" fill-opacity="0.5"></path><path d="M830.389 426.283C831.445 425.346 830.027 423.747 828.971 424.684C828.024 425.744 829.334 427.22 830.389 426.283Z" fill="white" fill-opacity="0.5"></path><path d="M784.974 447.668C786.03 446.731 784.611 445.132 783.556 446.069C782.5 447.005 783.918 448.604 784.974 447.668Z" fill="white" fill-opacity="0.5"></path><path d="M793.168 90.0311C794.224 89.0945 792.805 87.4954 791.749 88.432C790.802 89.4917 792.112 90.9677 793.168 90.0311Z" fill="white" fill-opacity="0.5"></path><path d="M611.378 138.786C612.434 137.85 611.016 136.251 609.96 137.187C608.904 138.124 610.323 139.723 611.378 138.786Z" fill="white" fill-opacity="0.5"></path><path d="M570.092 72.5153C571.147 71.5787 569.729 69.9797 568.673 70.9163C567.726 71.9759 569.036 73.452 570.092 72.5153Z" fill="white" fill-opacity="0.5"></path><path d="M658.791 120.111C659.846 119.174 658.428 117.575 657.372 118.512C656.425 119.571 657.735 121.047 658.791 120.111Z" fill="white" fill-opacity="0.5"></path><path d="M662.108 45.181C663.164 44.2443 661.745 42.6453 660.689 43.5819C659.634 44.5185 661.052 46.1176 662.108 45.181Z" fill="white" fill-opacity="0.5"></path><path d="M608.926 63.125C609.982 62.1884 608.564 60.5893 607.508 61.526C606.452 62.4626 607.87 64.0617 608.926 63.125Z" fill="white" fill-opacity="0.5"></path></svg> 