<?xml version="1.0" encoding="UTF-8"?> <svg xmlns="http://www.w3.org/2000/svg" width="25" height="25" viewBox="0 0 25 25" fill="none"><path fill-rule="evenodd" clip-rule="evenodd" d="M5.1665 0.543213C2.40508 0.543213 0.166504 2.78149 0.166504 5.54321V19.5432C0.166504 22.3049 2.40508 24.5432 5.1665 24.5432H19.1665C21.9279 24.5432 24.1665 22.3049 24.1665 19.5432V5.54321C24.1665 2.78149 21.9279 0.543213 19.1665 0.543213H5.1665ZM16.7022 5.82349C16.7134 5.85962 16.7193 5.89771 16.7193 5.93677V7.95825C16.7193 8.06079 16.6783 8.1604 16.6054 8.23267C16.5676 8.27075 16.5228 8.30005 16.4742 8.31958C16.4289 8.33716 16.3802 8.34692 16.3305 8.34692H14.3867C14.1933 8.34595 14.0064 8.41724 13.8627 8.54614C13.7189 8.67603 13.6285 8.85376 13.6092 9.04712V11.1458H16.2139C16.2733 11.1467 16.332 11.1604 16.3852 11.1868C16.4384 11.2131 16.4849 11.2522 16.5209 11.2991C16.557 11.3469 16.5817 11.4016 16.5932 11.4602C16.6046 11.5178 16.6025 11.5784 16.5871 11.636L16.0273 13.6575C16.0048 13.7405 15.9551 13.8147 15.8861 13.8665C15.8456 13.8967 15.7997 13.9192 15.7513 13.9319C15.7172 13.9407 15.6819 13.9456 15.6463 13.9446H13.6092V19.1545C13.6092 19.2571 13.5682 19.3567 13.4953 19.429C13.4492 19.4749 13.3927 19.509 13.3313 19.5266C13.2956 19.5374 13.2583 19.5432 13.2204 19.5432H10.8878C10.7847 19.5432 10.6858 19.5022 10.6129 19.429C10.54 19.3567 10.4991 19.2571 10.4991 19.1545V13.9446H8.55527C8.45216 13.9446 8.35327 13.9045 8.28036 13.8313C8.20746 13.7581 8.1665 13.6594 8.1665 13.5559V11.5344C8.1665 11.4319 8.20746 11.3323 8.28036 11.26C8.35327 11.1868 8.45216 11.1458 8.55527 11.1458H10.4991V9.04712C10.5533 8.0686 10.9927 7.15063 11.7211 6.49536C12.4496 5.84009 13.4079 5.49927 14.3867 5.5481H16.3305C16.4336 5.5481 16.5325 5.58911 16.6054 5.66138C16.6507 5.70728 16.6837 5.76294 16.7022 5.82349Z" fill="white"></path></svg> 