<?xml version="1.0" encoding="UTF-8"?> <svg xmlns="http://www.w3.org/2000/svg" width="25" height="25" viewBox="0 0 25 25" fill="none"><path d="M12.3335 16.5432C14.5426 16.5432 16.3335 14.7522 16.3335 12.5432C16.3335 10.3342 14.5426 8.54321 12.3335 8.54321C10.1244 8.54321 8.3335 10.3342 8.3335 12.5432C8.3335 14.7522 10.1244 16.5432 12.3335 16.5432Z" fill="white"></path><path fill-rule="evenodd" clip-rule="evenodd" d="M0.333496 5.54321C0.333496 2.78149 2.57207 0.543213 5.3335 0.543213H19.3335C22.0949 0.543213 24.3335 2.78149 24.3335 5.54321V19.5432C24.3335 22.3049 22.0949 24.5432 19.3335 24.5432H5.3335C2.57207 24.5432 0.333496 22.3049 0.333496 19.5432V5.54321ZM12.3335 18.5432C15.6472 18.5432 18.3335 15.8567 18.3335 12.5432C18.3335 9.22974 15.6472 6.54321 12.3335 6.54321C9.01979 6.54321 6.3335 9.22974 6.3335 12.5432C6.3335 15.8567 9.01979 18.5432 12.3335 18.5432ZM18.8335 7.54321C19.6619 7.54321 20.3335 6.87134 20.3335 6.04321C20.3335 5.21509 19.6619 4.54321 18.8335 4.54321C18.0051 4.54321 17.3335 5.21509 17.3335 6.04321C17.3335 6.87134 18.0051 7.54321 18.8335 7.54321Z" fill="white"></path></svg> 