<?xml version="1.0" encoding="UTF-8"?> <svg xmlns="http://www.w3.org/2000/svg" width="24" height="25" viewBox="0 0 24 25" fill="none"><path fill-rule="evenodd" clip-rule="evenodd" d="M0 5.54321C0 2.78149 2.23857 0.543213 5 0.543213H19C21.7614 0.543213 24 2.78149 24 5.54321V19.5432C24 22.3049 21.7614 24.5432 19 24.5432H5C2.23857 24.5432 0 22.3049 0 19.5432V5.54321ZM6.68262 8.90845C7.61189 8.90845 8.36523 8.15552 8.36523 7.22583C8.36523 6.29614 7.61189 5.54321 6.68262 5.54321C5.75333 5.54321 5 6.29614 5 7.22583C5 8.15552 5.75333 8.90845 6.68262 8.90845ZM9.95403 19.5178V10.1829H12.7363V11.4592H12.7756C13.1624 10.7268 14.1083 9.95239 15.5194 9.95239C18.4586 9.95239 19 11.885 19 14.3997V19.5188H16.1V14.9788C16.1 13.8967 16.0816 12.5042 14.592 12.5042C13.0816 12.5042 12.8525 13.6838 12.8525 14.9016V19.5178H9.95403ZM8.13376 10.1829H5.23071V19.5178H8.13376V10.1829Z" fill="white"></path></svg> 