<?xml version="1.0" encoding="UTF-8"?> <svg xmlns="http://www.w3.org/2000/svg" width="24" height="25" viewBox="0 0 24 25" fill="none"><path fill-rule="evenodd" clip-rule="evenodd" d="M5 0.543213C2.23858 0.543213 0 2.78179 0 5.54321V19.5432C0 22.3046 2.23858 24.5432 5 24.5432H19C21.7614 24.5432 24 22.3046 24 19.5432V5.54321C24 2.78179 21.7614 0.543213 19 0.543213H5ZM12 20.5432C16.4183 20.5432 20 16.9615 20 12.5432C20 8.12494 16.4183 4.54321 12 4.54321C7.58172 4.54321 4 8.12494 4 12.5432C4 16.9615 7.58172 20.5432 12 20.5432ZM13.0667 8.54321H9.2V16.5432H10.8V14.1432H13.0667C14.6133 14.1432 15.8667 12.8899 15.8667 11.3432C15.8667 9.79655 14.6133 8.54321 13.0667 8.54321ZM13.0667 12.5432H10.8V10.1432H13.0667C13.7267 10.1432 14.2667 10.6832 14.2667 11.3432C14.2667 12.0032 13.7267 12.5432 13.0667 12.5432Z" fill="white"></path></svg> 