<?xml version="1.0" encoding="UTF-8"?> <svg xmlns="http://www.w3.org/2000/svg" width="25" height="25" viewBox="0 0 25 25" fill="none"><path fill-rule="evenodd" clip-rule="evenodd" d="M4.7998 0.543213C2.59082 0.543213 0.799805 2.33411 0.799805 4.54321V20.5432C0.799805 22.7523 2.59082 24.5432 4.7998 24.5432H20.7998C23.0088 24.5432 24.7998 22.7523 24.7998 20.5432V4.54321C24.7998 2.33411 23.0088 0.543213 20.7998 0.543213H4.7998ZM19.373 5.54321H16.998L13.0845 10.0176L9.70068 5.54382H4.7998L10.6558 13.1992L5.10547 19.5432H7.48193L11.7661 14.6487L15.5093 19.5432H20.2886L14.1841 11.4741L19.373 5.54321ZM17.4805 18.1221H16.1646L7.57373 6.89014H8.98584L17.4805 18.1221Z" fill="white"></path></svg> 