<?xml version="1.0" encoding="UTF-8"?> <svg xmlns="http://www.w3.org/2000/svg" width="25" height="25" viewBox="0 0 25 25" fill="none"><path fill-rule="evenodd" clip-rule="evenodd" d="M4 0C1.79102 0 0 1.79077 0 4V21C0 23.2092 1.79102 25 4 25H21C23.209 25 25 23.2092 25 21V4C25 1.79077 23.209 0 21 0H4ZM21.752 6.12964C22.0742 6.45264 22.3057 6.85425 22.4238 7.29468C22.8687 8.92603 22.8481 12.3271 22.8481 12.3271C22.8481 12.3271 22.8447 15.7095 22.4136 17.3396C22.2925 17.7793 22.0596 18.1797 21.7368 18.5017C21.5449 18.6929 21.3257 18.8525 21.0869 18.9758C20.9238 19.0601 20.7515 19.1274 20.5728 19.176C18.9419 19.603 12.4155 19.5959 12.4155 19.5959C12.4155 19.5959 5.90723 19.5886 4.25928 19.1406C3.36572 18.8999 2.6626 18.1948 2.42285 17.302C1.99561 15.6875 2 12.2876 2 12.2876C2 12.2876 2.00439 8.90405 2.43457 7.27295C2.479 7.11255 2.53809 6.95752 2.61084 6.80933C2.73828 6.55029 2.90723 6.31274 3.11182 6.10645C3.43408 5.78198 3.83447 5.5459 4.27393 5.4209C5.90625 4.99268 12.4312 5 12.4312 5C12.4312 5 18.9575 5.00732 20.5884 5.45532C21.0288 5.57422 21.4302 5.80688 21.752 6.12964ZM10.3491 9.17188L10.3438 15.4219L15.7729 12.302L10.3491 9.17188Z" fill="white"></path></svg> 