<?xml version="1.0" encoding="UTF-8"?>
<svg xmlns="http://www.w3.org/2000/svg" width="220" height="57" viewBox="0 0 220 57" fill="none">
  <path d="M73.5587 27.4955C72.8827 27.4955 72.2682 27.4348 71.7766 27.2527C71.285 27.0706 70.8548 26.8277 70.4861 26.5241C70.1174 26.2206 69.8716 25.7956 69.6872 25.3099C69.5029 24.8242 69.4414 24.2778 69.4414 23.7314C69.4414 22.5172 69.8101 21.6065 70.4861 20.9387C71.2235 20.3316 72.2068 19.9673 73.6202 19.9673C73.9274 19.9673 74.2347 19.9673 74.4805 20.028C74.7878 20.028 75.0336 20.0887 75.2179 20.0887C75.4638 20.1494 75.7096 20.1494 75.9554 20.2101L76.1397 20.3923L76.0168 21.7279L75.771 21.8493C75.5867 21.7886 75.3408 21.7279 75.1565 21.6672C74.9721 21.6065 74.7263 21.6065 74.4805 21.5458C74.2347 21.4851 73.9889 21.4851 73.6816 21.4851C72.9442 21.4851 72.3911 21.6672 72.0224 22.0315C71.5922 22.3958 71.4079 22.9422 71.4079 23.61C71.4079 23.9743 71.4693 24.2778 71.5922 24.5207C71.7151 24.8242 71.8381 25.0064 72.0839 25.2492C72.2682 25.4313 72.514 25.6135 72.8213 25.6742C73.1286 25.7956 73.4358 25.8563 73.7431 25.8563C74.0503 25.8563 74.3576 25.8563 74.6034 25.7956C74.8492 25.7349 75.095 25.7349 75.2794 25.6742C75.4638 25.6135 75.7096 25.5528 75.8325 25.5528L76.0783 25.6742L76.2012 27.0098L76.0168 27.192C75.8325 27.2527 75.6481 27.2527 75.4023 27.3134C75.2179 27.3741 74.9721 27.3741 74.6649 27.3741C74.2962 27.4955 73.9274 27.4955 73.5587 27.4955Z" fill="white"></path>
  <path d="M85.4192 27.2526L85.2348 27.4347H83.5756L83.3913 27.2526L82.8997 26.0384H79.6427L79.1511 27.3133L78.9667 27.4955H77.3689L77.1846 27.3133L80.1343 20.2101L80.3186 20.0886H82.2851L82.4695 20.2101L85.4192 27.2526ZM82.408 24.642L81.4248 21.8493H81.179L80.1957 24.642H82.408ZM80.8103 18.9958L81.6092 17.478L83.5142 17.6602V17.9637L82.1008 19.2994H80.8717V18.9958H80.8103Z" fill="white"></path>
  <path d="M95.1286 20.21V27.2525L94.9442 27.4347H93.4079L93.2236 27.2525V22.7599H93.1007L91.7487 25.1883H90.2124L88.8605 22.7599H88.7375V27.2525L88.5532 27.4347H87.0169L86.8325 27.2525V20.21L87.0169 20.0278H89.0448L90.8884 23.2456H90.9498L92.7934 20.0278H94.8213L95.1286 20.21Z" fill="white"></path>
  <path d="M104.899 27.2528L104.715 27.435H103.117L102.933 27.2528L102.441 26.0386H99.1842L98.6926 27.3136L98.5082 27.4957H96.9104L96.7261 27.3136L99.6758 20.2103L99.8602 20.0889H101.827L102.011 20.2103L104.899 27.2528ZM101.888 24.6422L100.905 21.8495H100.659L99.6758 24.6422H101.888Z" fill="white"></path>
  <path d="M112.642 22.6384C112.642 23.1848 112.52 23.6705 112.274 24.0955C112.028 24.5205 111.721 24.8241 111.291 25.0062L112.827 27.2525L112.642 27.4347H110.737L109.447 25.3705H108.095V27.2525L107.911 27.4347H106.374L106.19 27.2525V20.21L106.374 20.0278H109.508C110.492 20.0278 111.29 20.2707 111.782 20.6957C112.397 21.1206 112.642 21.7885 112.642 22.6384ZM109.57 23.8527C110 23.8527 110.307 23.7312 110.553 23.5491C110.799 23.367 110.922 23.0634 110.922 22.6384C110.922 22.2742 110.799 21.9706 110.553 21.7885C110.307 21.6063 110 21.4849 109.57 21.4849H108.156V23.8527H109.57Z" fill="white"></path>
  <path d="M122.168 27.2528L121.983 27.435H120.386L120.201 27.2528L119.71 26.0386H116.453L115.961 27.3136L115.777 27.4957H114.179L113.995 27.3136L116.944 20.2103L117.129 20.0889H119.095L119.28 20.2103L122.168 27.2528ZM119.157 24.6422L118.173 21.8495H117.928L116.944 24.6422H119.157Z" fill="white"></path>
  <path d="M128.804 21.4849V23.0027H131.017L131.201 23.1848V24.2169L131.017 24.3991H128.804V25.9169H132.553L132.737 26.099V27.1918L132.553 27.3739H127.084L126.899 27.1918V20.21L127.084 20.0278H132.553L132.737 20.21V21.3028L132.553 21.4849H128.804Z" fill="white"></path>
  <path d="M142.939 20.21V27.2525L142.754 27.4347H141.218L141.034 27.2525V22.7599H140.911L139.559 25.1883H138.022L136.671 22.7599H136.548V27.2525L136.363 27.4347H134.827L134.643 27.2525V20.21L134.827 20.0278H136.855L138.698 23.2456H138.76L140.603 20.0278H142.631L142.939 20.21Z" fill="white"></path>
  <path d="M148.285 20.0278C149.268 20.0278 150.005 20.2707 150.497 20.6957C151.05 21.1206 151.296 21.7885 151.296 22.5777C151.296 23.4277 151.05 24.0955 150.497 24.5812C149.944 25.0669 149.207 25.3097 148.285 25.3097H146.933V27.1918L146.749 27.3739H145.212L145.028 27.1918V20.21L145.212 20.0278H148.285ZM148.223 23.8527C148.654 23.8527 148.961 23.7312 149.207 23.5491C149.452 23.367 149.575 23.0634 149.575 22.6384C149.575 22.2742 149.452 21.9706 149.207 21.7885C148.961 21.6063 148.654 21.4849 148.223 21.4849H146.933V23.8527H148.223Z" fill="white"></path>
  <path d="M159.285 22.6384C159.285 23.1848 159.162 23.6705 158.916 24.0955C158.671 24.5205 158.363 24.8241 157.933 25.0062L159.469 27.2525L159.285 27.4347H157.319L156.028 25.3705H154.676V27.2525L154.492 27.4347H153.017L152.833 27.2525V20.21L153.017 20.0278H156.151C157.134 20.0278 157.933 20.2707 158.425 20.6957C159.039 21.1206 159.285 21.7885 159.285 22.6384ZM156.151 23.8527C156.581 23.8527 156.888 23.7312 157.134 23.5491C157.38 23.367 157.503 23.0634 157.503 22.6384C157.503 22.2742 157.38 21.9706 157.134 21.7885C156.888 21.6063 156.581 21.4849 156.151 21.4849H154.738V23.8527H156.151Z" fill="white"></path>
  <path d="M163.156 21.4849V23.0027H165.369L165.553 23.1848V24.2169L165.369 24.3991H163.156V25.9169H166.905L167.089 26.099V27.1918L166.905 27.3739H161.436L161.251 27.1918V20.21L161.436 20.0278H166.905L167.089 20.21V21.3028L166.905 21.4849H163.156Z" fill="white"></path>
  <path d="M171.883 19.9673C172.19 19.9673 172.436 19.9673 172.743 20.028C172.989 20.0887 173.235 20.0887 173.419 20.1494C173.665 20.2101 173.849 20.2708 174.034 20.3316L174.218 20.5137L174.095 21.8493L173.849 21.9708C173.665 21.9101 173.419 21.8493 173.173 21.7886C172.989 21.7279 172.743 21.6672 172.497 21.6672C172.252 21.6065 172.006 21.6065 171.699 21.6065C171.33 21.6065 171.023 21.6672 170.838 21.7279C170.654 21.7886 170.592 21.9708 170.592 22.1529C170.592 22.335 170.715 22.5172 170.9 22.6386C171.084 22.76 171.33 22.8207 171.637 22.9422C171.944 23.0029 172.252 23.1243 172.559 23.2457C172.928 23.3671 173.235 23.4886 173.481 23.61C173.788 23.7921 174.034 23.9743 174.218 24.2778C174.402 24.5814 174.525 24.8849 174.525 25.3706C174.525 25.7349 174.464 26.0385 174.28 26.342C174.095 26.6456 173.911 26.8884 173.604 27.0706C173.296 27.2527 172.989 27.4348 172.559 27.4955C172.19 27.617 171.76 27.617 171.268 27.617C170.9 27.617 170.592 27.617 170.285 27.5562C169.978 27.4955 169.732 27.4348 169.486 27.3741C169.24 27.3134 168.995 27.2527 168.81 27.1313L168.626 26.9491L168.749 25.7349L168.933 25.5528C169.118 25.6742 169.363 25.7349 169.609 25.7956C169.794 25.8563 170.101 25.917 170.347 25.9777C170.654 26.0385 170.9 26.0385 171.268 26.0385C171.699 26.0385 172.006 25.9777 172.19 25.8563C172.375 25.7349 172.497 25.6135 172.497 25.3706C172.497 25.1278 172.375 25.0064 172.19 24.8849C172.006 24.7635 171.76 24.6421 171.453 24.5814C171.145 24.5207 170.838 24.3992 170.531 24.3385C170.162 24.2778 169.855 24.1564 169.609 23.9743C169.302 23.7921 169.056 23.61 168.872 23.3671C168.687 23.1243 168.564 22.76 168.564 22.335C168.564 21.6672 168.81 21.1208 169.363 20.6958C169.978 20.1494 170.777 19.9673 171.883 19.9673Z" fill="white"></path>
  <path d="M183.928 27.2528L183.743 27.435H182.145L181.961 27.2528L181.469 26.0386H178.212L177.721 27.3136L177.537 27.4957H175.939L175.754 27.3136L178.704 20.2103L178.888 20.0889H180.855L181.039 20.2103L183.928 27.2528ZM180.916 24.6422L179.933 21.8495H179.687L178.704 24.6422H180.916Z" fill="white"></path>
  <path d="M191.67 22.6384C191.67 23.1848 191.547 23.6705 191.302 24.0955C191.056 24.5205 190.749 24.8241 190.318 25.0062L191.855 27.2525L191.67 27.4347H189.765L188.475 25.3705H187.123V27.2525L186.938 27.4347H185.402L185.218 27.2525V20.21L185.402 20.0278H188.536C189.519 20.0278 190.318 20.2707 190.81 20.6957C191.302 21.1206 191.67 21.7885 191.67 22.6384ZM188.536 23.8527C188.966 23.8527 189.274 23.7312 189.519 23.5491C189.765 23.367 189.888 23.0634 189.888 22.6384C189.888 22.2742 189.765 21.9706 189.519 21.7885C189.274 21.6063 188.966 21.4849 188.536 21.4849H187.123V23.8527H188.536Z" fill="white"></path>
  <path d="M195.542 20.21V27.2525L195.357 27.4347H193.821L193.637 27.2525V20.21L193.821 20.0278H195.357L195.542 20.21Z" fill="white"></path>
  <path d="M205.19 27.2528L205.005 27.435H203.408L203.223 27.2528L202.732 26.0386H199.475L198.983 27.3136L198.799 27.4957H197.201L197.017 27.3136L199.966 20.2103L200.151 20.0889H202.117L202.302 20.2103L205.19 27.2528ZM202.179 24.6422L201.195 21.8495H200.95L199.966 24.6422H202.179Z" fill="white"></path>
  <path d="M211.704 26.0383V27.2525L211.52 27.4347H206.788L206.604 27.2525V20.21L206.788 20.0278H208.324L208.509 20.21V25.8562H211.52L211.704 26.0383Z" fill="white"></path>
  <path d="M75.7096 33.1414V38.5448L75.5867 38.6662H75.218L75.0951 38.5448V33.6271H74.9722L73.1901 36.5413H72.5141L70.732 33.6271H70.6091V38.5448L70.4862 38.6662H70.056L69.9331 38.5448V33.1414L70.056 33.02H71.0392L72.8214 35.9342H72.9443L74.7264 33.02H75.7096V33.1414Z" fill="white"></path>
  <path d="M86.1563 38.5448L86.0334 38.6662H85.5418L85.4189 38.5448L84.8659 37.2698H81.5474L80.9943 38.5448L80.8714 38.6662H80.4413L80.3184 38.5448L82.7765 33.0807L82.8994 33.02H83.6982L83.7597 33.0807L86.1563 38.5448ZM84.62 36.7234L83.3295 33.6271H83.1452L81.7932 36.7234H84.62Z" fill="white"></path>
  <path d="M94.5753 38.1807V38.4842L94.4524 38.6057H91.4413L91.3184 38.4842V33.0809L91.4413 32.9595H91.81L91.9329 33.0809V37.9985H94.4524L94.5753 38.1807Z" fill="white"></path>
  <path d="M102.257 32.9595C102.687 32.9595 103.056 33.0202 103.425 33.2023C103.793 33.3237 104.101 33.5666 104.347 33.8094C104.592 34.0523 104.838 34.3558 104.961 34.7201C105.084 35.0844 105.207 35.4487 105.207 35.8736C105.207 36.2986 105.145 36.6629 104.961 37.0272C104.838 37.3914 104.592 37.695 104.347 37.9378C104.101 38.1807 103.732 38.3628 103.425 38.5449C103.056 38.6664 102.687 38.7878 102.257 38.7878H100.106L99.9834 38.6664V33.263L100.106 33.1416H102.257V32.9595ZM102.319 38.0593C102.626 38.0593 102.933 37.9985 103.24 37.8771C103.548 37.7557 103.732 37.6343 103.978 37.3914C104.162 37.2093 104.347 36.9664 104.469 36.6629C104.592 36.42 104.654 36.1165 104.654 35.8129C104.654 35.5094 104.592 35.2058 104.469 34.9022C104.347 34.6594 104.162 34.4166 103.978 34.1737C103.793 33.9916 103.548 33.8094 103.24 33.688C102.933 33.5666 102.687 33.5059 102.319 33.5059H100.659V37.9378H102.319V38.0593Z" fill="white"></path>
  <path d="M113.257 32.9595C113.687 32.9595 114.056 33.0202 114.425 33.2023C114.794 33.3237 115.101 33.5666 115.408 33.8094C115.654 34.0523 115.9 34.3558 116.023 34.7201C116.207 35.0844 116.268 35.4487 116.268 35.8129C116.268 36.2379 116.207 36.6022 116.023 36.9664C115.838 37.3307 115.654 37.6343 115.408 37.8771C115.162 38.12 114.794 38.3628 114.425 38.4842C114.056 38.6057 113.687 38.7271 113.257 38.7271C112.827 38.7271 112.458 38.6664 112.09 38.4842C111.721 38.3628 111.414 38.12 111.106 37.8771C110.861 37.6343 110.615 37.3307 110.492 36.9664C110.308 36.6022 110.246 36.2379 110.246 35.8129C110.246 35.3879 110.308 35.0237 110.492 34.6594C110.676 34.2951 110.861 33.9916 111.106 33.7487C111.352 33.5059 111.721 33.263 112.09 33.1416C112.458 33.0202 112.827 32.9595 113.257 32.9595ZM113.257 33.5666C112.95 33.5666 112.643 33.6273 112.335 33.7487C112.028 33.8701 111.782 34.0523 111.598 34.2344C111.414 34.4166 111.229 34.6594 111.106 34.963C110.984 35.2058 110.922 35.5094 110.922 35.8129C110.922 36.1165 110.984 36.42 111.106 36.7236C111.229 37.0272 111.414 37.2093 111.598 37.4521C111.782 37.6343 112.09 37.8164 112.335 37.9378C112.643 38.0593 112.95 38.12 113.257 38.12C113.565 38.12 113.872 38.0593 114.179 37.9378C114.486 37.8164 114.732 37.6343 114.916 37.4521C115.101 37.27 115.285 37.0272 115.408 36.7236C115.531 36.42 115.592 36.1772 115.592 35.8129C115.592 35.5094 115.531 35.2058 115.408 34.963C115.285 34.7201 115.101 34.4773 114.916 34.2344C114.732 34.0523 114.486 33.8701 114.179 33.7487C113.872 33.6273 113.565 33.5666 113.257 33.5666Z" fill="white"></path>
  <path d="M126.47 33.1414V38.5448L126.347 38.6662H125.363L122.414 33.6271H122.291V38.5448L122.168 38.6662H121.799L121.676 38.5448V33.1414L121.799 33.02H122.782L125.732 38.1198H125.855V33.2022L125.978 33.0807H126.347L126.47 33.1414Z" fill="white"></path>
  <path d="M136.732 38.5448L136.609 38.6662H136.118L135.995 38.5448L135.442 37.2698H132.123L131.57 38.5448L131.447 38.6662H131.017L130.894 38.5448L133.352 33.0807L133.475 33.02H134.274L134.335 33.0807L136.732 38.5448ZM135.257 36.7234L133.967 33.6271H133.782L132.43 36.7234H135.257Z" fill="white"></path>
  <path d="M144.168 32.9595C144.598 32.9595 144.967 33.0202 145.335 33.2023C145.704 33.3237 146.011 33.5666 146.257 33.8094C146.503 34.0523 146.749 34.3558 146.872 34.7201C146.995 35.0844 147.117 35.4487 147.117 35.8736C147.117 36.2986 147.056 36.6629 146.872 37.0272C146.749 37.3914 146.503 37.695 146.257 37.9378C146.011 38.1807 145.643 38.3628 145.335 38.5449C144.967 38.6664 144.598 38.7878 144.168 38.7878H141.955L141.833 38.6664V33.263L141.955 33.1416H144.168V32.9595ZM144.168 38.0593C144.475 38.0593 144.782 37.9985 145.09 37.8771C145.397 37.7557 145.581 37.6343 145.827 37.3914C146.011 37.2093 146.196 36.9664 146.319 36.6629C146.441 36.42 146.503 36.1165 146.503 35.8129C146.503 35.5094 146.441 35.2058 146.319 34.9022C146.196 34.6594 146.011 34.4166 145.827 34.1737C145.643 33.9916 145.397 33.8094 145.09 33.688C144.782 33.5666 144.536 33.5059 144.168 33.5059H142.508V37.9378H144.168V38.0593Z" fill="white"></path>
  <path d="M155.106 32.9595C155.537 32.9595 155.905 33.0202 156.274 33.2023C156.643 33.3237 156.95 33.5666 157.257 33.8094C157.503 34.0523 157.749 34.3558 157.872 34.7201C158.056 35.0844 158.118 35.4487 158.118 35.8129C158.118 36.2379 158.056 36.6022 157.872 36.9664C157.687 37.3307 157.503 37.6343 157.257 37.8771C157.011 38.12 156.643 38.3628 156.274 38.4842C155.905 38.6057 155.537 38.7271 155.106 38.7271C154.676 38.7271 154.308 38.6664 153.939 38.4842C153.57 38.3628 153.263 38.12 152.956 37.8771C152.71 37.6343 152.464 37.3307 152.341 36.9664C152.157 36.6022 152.095 36.2379 152.095 35.8129C152.095 35.3879 152.157 35.0237 152.341 34.6594C152.525 34.2951 152.71 33.9916 152.956 33.7487C153.201 33.5059 153.57 33.263 153.939 33.1416C154.308 33.0202 154.676 32.9595 155.106 32.9595ZM155.106 33.5666C154.799 33.5666 154.492 33.6273 154.185 33.7487C153.877 33.8701 153.632 34.0523 153.447 34.2344C153.263 34.4166 153.078 34.6594 152.956 34.963C152.833 35.2058 152.771 35.5094 152.771 35.8129C152.771 36.1165 152.833 36.42 152.956 36.7236C153.078 37.0272 153.263 37.2093 153.447 37.4521C153.632 37.6343 153.939 37.8164 154.185 37.9378C154.492 38.0593 154.799 38.12 155.106 38.12C155.414 38.12 155.721 38.0593 156.028 37.9378C156.335 37.8164 156.581 37.6343 156.766 37.4521C156.95 37.27 157.134 37.0272 157.257 36.7236C157.38 36.42 157.442 36.1772 157.442 35.8129C157.442 35.5094 157.38 35.2058 157.257 34.963C157.134 34.7201 156.95 34.4773 156.766 34.2344C156.581 34.0523 156.335 33.8701 156.028 33.7487C155.721 33.6273 155.414 33.5666 155.106 33.5666Z" fill="white"></path>
  <path d="M5.22363 33.0202C6.32978 31.1381 7.43592 29.2561 8.54207 27.374C8.78788 27.0097 8.97224 26.5847 9.21805 26.2205C9.58676 25.6134 9.95548 25.6134 10.3242 26.2205C11.6147 28.4061 12.9052 30.5917 14.1957 32.7773C14.1957 32.838 14.2572 32.8988 14.2572 32.8988C14.4415 33.263 14.3186 33.5059 13.8884 33.5666C13.6426 33.5666 13.3354 33.6273 13.0896 33.6273C12.6594 33.688 12.5365 33.8701 12.6594 34.2951C12.9052 34.963 13.151 35.5701 13.4583 36.2379C14.9331 39.3949 17.084 42.0662 19.8493 44.1911C21.9387 45.7696 24.3354 46.6196 26.8549 47.166C28.3298 47.4696 29.8661 47.591 31.4024 47.5303C33.6761 47.4696 35.827 47.0446 38.0393 46.3768C38.3465 46.2553 38.7153 46.2553 39.084 46.1339C39.2069 46.0732 39.3298 46.1339 39.3298 46.2553C39.3298 46.316 39.3298 46.4375 39.2683 46.4982C38.5923 47.1053 37.8549 47.591 37.056 48.016C35.0896 49.1088 33.0002 49.898 30.7879 50.2016C29.3745 50.3837 27.9611 50.5659 26.6091 50.5659C24.8884 50.6266 23.1678 50.2016 21.5085 49.7159C21.0784 49.5945 20.6482 49.4123 20.218 49.2909C20.0951 49.2302 20.0337 49.2302 19.9108 49.3516C19.2348 50.323 18.3745 50.8694 17.2069 50.9908C17.1454 50.9908 17.1454 50.9908 17.084 51.0516C16.8996 51.0516 16.7153 51.0516 16.5309 51.0516C16.408 51.0516 16.2851 50.9908 16.1622 50.9908C13.5812 50.5052 12.2907 47.7731 13.5197 45.5268C13.6426 45.3447 13.5812 45.2839 13.4583 45.1018C12.9666 44.6161 12.475 44.1911 12.0449 43.7054C10.2013 41.5805 8.78788 39.2735 7.92754 36.6022C7.68173 35.8129 7.49738 35.0237 7.31302 34.1737C7.19011 33.7487 7.00576 33.5666 6.51414 33.5666C6.32978 33.5666 6.08397 33.5666 5.89961 33.5666C5.6538 33.5666 5.40799 33.5059 5.28509 33.263C5.22363 33.1416 5.22363 33.0809 5.22363 33.0202Z" fill="white"></path>
  <path d="M18.006 5.15332C18.1903 5.21403 18.3133 5.21403 18.4976 5.27474C19.3579 5.51759 20.0954 6.00328 20.6484 6.73182C20.7714 6.91396 20.8328 6.91396 21.0172 6.85325C22.3691 6.48898 23.7211 6.18542 25.073 6.00328C26.6093 5.82115 28.2071 5.94257 29.7434 6.18542C31.3412 6.42827 32.8775 6.91396 34.3524 7.46036C34.4138 7.52108 34.5367 7.52108 34.5982 7.52108C35.0283 7.6425 35.2741 7.52108 35.52 7.21752C35.6429 7.03538 35.8272 6.79254 35.9501 6.6104C36.1959 6.30684 36.4417 6.30684 36.6876 6.6104C36.8105 6.73182 36.8719 6.91396 36.9334 7.03538C38.0395 9.16029 39.0842 11.2852 40.1904 13.4708C40.2518 13.5922 40.3133 13.7137 40.3133 13.7744C40.4362 14.1994 40.2518 14.4422 39.8216 14.4422C39.2686 14.4422 38.7769 14.3815 38.2239 14.3815C36.8719 14.3208 35.52 14.1994 34.168 14.1386C33.4306 14.0779 32.6931 14.0779 31.9557 14.0172C31.2797 13.9565 31.2183 13.7744 31.5255 13.1673C31.587 13.0458 31.7099 12.8637 31.7714 12.7423C32.0172 12.3173 31.9557 12.1352 31.5255 11.953C30.911 11.7102 30.235 11.528 29.6205 11.4066C28.33 11.1638 27.0395 11.2245 25.749 11.2852C24.4585 11.3459 23.2295 11.4673 21.939 11.7102C18.2518 12.378 15.1177 14.1994 12.5982 16.8707C10.6317 18.9349 9.21828 21.4241 8.17359 24.0347C7.80487 25.006 7.49761 25.9167 7.1289 26.8881C7.06744 26.9488 7.06744 27.0702 7.00599 27.131C6.94454 27.1917 6.88309 27.2524 6.82163 27.2524C6.76018 27.2524 6.69873 27.1917 6.69873 27.131C6.63728 26.9488 6.63728 26.706 6.57582 26.5238C6.45292 23.6097 6.88309 20.8169 8.11214 18.1456C9.27973 15.535 11.0004 13.2887 13.1512 11.2852C13.3971 11.0424 13.7043 10.7995 13.9501 10.5567C14.0116 10.4959 14.073 10.3745 14.0116 10.3138C13.0898 8.06748 14.6261 5.5783 16.9613 5.21403C16.9613 5.21403 17.0228 5.21403 17.0228 5.15332C17.3915 5.15332 17.6987 5.15332 18.006 5.15332Z" fill="white"></path>
  <path d="M55.4919 28.5881C55.4305 28.7702 55.4304 28.9523 55.369 29.1345C54.9388 30.7737 53.464 31.9272 51.7433 31.9272C51.4975 31.9272 51.436 31.9879 51.3746 32.2308C50.4528 36.177 48.4249 39.5162 45.3522 42.2482C45.1679 42.3696 45.045 42.5517 44.8606 42.6732C44.4919 43.0982 44.4919 43.4017 44.7992 43.8874C44.8606 44.0088 44.9835 44.1303 45.045 44.2517C45.2908 44.6159 45.1679 44.7981 44.7377 44.8588C44.3075 44.9195 43.9388 44.9195 43.5087 44.9195C41.4193 44.9195 39.3299 44.9195 37.1791 44.9195C36.9947 44.9195 36.8103 44.8588 36.5645 44.8588C36.3802 44.7981 36.2573 44.6767 36.3187 44.4338C36.3802 44.2517 36.4416 44.0695 36.5645 43.9481C37.7936 41.8232 39.0841 39.6983 40.3131 37.5734C40.4975 37.2698 40.6204 37.2091 40.8662 37.5127C41.0506 37.7555 41.2964 37.9984 41.4807 38.1805C41.7265 38.4841 42.0338 38.5448 42.2796 38.2412C43.2629 36.9663 44.3075 35.752 45.045 34.295C45.7824 32.7165 46.3969 31.0165 46.95 29.3773C47.5031 27.6167 47.5645 25.7953 47.4416 23.9133C47.1344 19.7242 45.4137 16.0814 42.7098 12.8637C41.9724 12.0138 41.1735 11.2245 40.436 10.3745C40.1902 10.1317 39.9444 9.82814 39.6986 9.5853C39.6372 9.52459 39.6372 9.40316 39.6986 9.34245C39.7601 9.28174 39.883 9.28174 39.883 9.28174C43.9388 11.1031 47.1344 13.8351 49.2852 17.7207C50.207 19.4206 51.0059 21.1812 51.436 23.0633C51.4975 23.4883 51.5589 23.8525 51.6204 24.2775C51.6204 24.4597 51.6818 24.5204 51.8662 24.5204C53.6483 24.7025 55.0003 25.856 55.3075 27.556C55.3075 27.6774 55.369 27.7988 55.369 27.8595C55.4919 28.1024 55.4919 28.3452 55.4919 28.5881Z" fill="white"></path>
  <path d="M61.3911 13.0459V43.1589" stroke="white" stroke-width="2" stroke-miterlimit="10"></path>
</svg>
