<?xml version="1.0" encoding="UTF-8"?>
<svg xmlns="http://www.w3.org/2000/svg" width="60" height="61" viewBox="0 0 60 61" fill="none">
  <path d="M34.1364 38.7607H35.4759V41.2387H39.3435V42.4757H35.4817V45.5992C35.4817 45.8718 35.5107 46.1404 35.6112 46.3975C35.7619 46.786 36.0403 47.0392 36.4423 47.1455C36.8076 47.2422 37.1749 47.2422 37.5324 47.1243C38.0698 46.9464 38.3211 46.5367 38.3964 46.0032C38.4216 45.8273 38.4216 45.6495 38.437 45.4659H39.7494C39.7494 45.634 39.7591 45.8041 39.7494 45.9723C39.7108 46.4999 39.5716 46.9947 39.2604 47.4316C38.8971 47.9457 38.3887 48.2376 37.7837 48.3709C37.0898 48.5217 36.4017 48.5043 35.731 48.2569C34.9096 47.9535 34.4263 47.3485 34.233 46.5096C34.1731 46.2467 34.1383 45.9723 34.1383 45.7036C34.1306 43.4247 34.1325 41.1478 34.1325 38.869C34.1325 38.8342 34.1364 38.8013 34.1383 38.7607H34.1364Z" fill="white"></path>
  <path d="M24.6536 43.7861H23.3914C23.3334 43.7861 23.2948 43.7784 23.2658 43.7146C22.8289 42.7443 22.05 42.3133 21.014 42.3114C20.2833 42.3094 19.6532 42.5568 19.17 43.1251C18.8434 43.5117 18.6791 43.9659 18.6327 44.4626C18.5805 45.029 18.6597 45.5702 18.9477 46.0689C19.313 46.7028 19.8736 47.0604 20.5868 47.1725C21.2189 47.2711 21.8258 47.1861 22.3805 46.8478C22.7748 46.6043 23.0647 46.2679 23.2464 45.8408C23.2812 45.7557 23.3237 45.7267 23.4185 45.7287C23.8263 45.7345 24.2322 45.7306 24.6555 45.7306C24.6458 45.7809 24.64 45.8214 24.6304 45.8601C24.2689 47.1126 23.461 47.9321 22.2143 48.2955C21.1377 48.6067 20.0804 48.5236 19.0888 47.9863C18.0779 47.4373 17.4981 46.5637 17.3087 45.4387C17.1637 44.5709 17.2681 43.7262 17.6914 42.9434C18.2442 41.9229 19.1198 41.3411 20.2486 41.1323C21.0314 40.9874 21.8045 41.0415 22.5487 41.3391C23.6349 41.7721 24.325 42.5646 24.6381 43.6895C24.6458 43.7185 24.6478 43.7494 24.6536 43.7919V43.7861Z" fill="white"></path>
  <path d="M31.3801 41.248H32.7312V44.876C32.7312 45.4694 32.6558 46.0512 32.42 46.604C32.0624 47.4448 31.4381 47.9995 30.5722 48.2682C29.712 48.5349 28.8403 48.5388 27.9802 48.2798C26.8495 47.9377 26.171 47.1607 25.914 46.0222C25.8347 45.6743 25.798 45.309 25.7941 44.9495C25.7806 43.7472 25.7883 42.5431 25.7883 41.3408V41.2519H27.1394V44.8799C27.1394 45.3419 27.1993 45.7922 27.4177 46.2097C27.7173 46.7857 28.2102 47.0853 28.8403 47.1781C29.2868 47.2438 29.7314 47.2206 30.1585 47.0524C30.8196 46.7954 31.1733 46.2832 31.3067 45.6105C31.3569 45.3573 31.3762 45.0944 31.3782 44.8374C31.3859 43.6893 31.3801 42.5392 31.3801 41.3911V41.248Z" fill="white"></path>
  <path d="M42.4879 48.2682H41.1504V41.248H42.4879V48.2682Z" fill="white"></path>
  <path d="M41.8114 40.133C41.278 40.133 40.874 39.7271 40.8721 39.1859C40.8701 38.6486 41.276 38.2427 41.8134 38.2427C42.3507 38.2427 42.7547 38.6486 42.7528 39.1859C42.7508 39.7252 42.3469 40.1311 41.8134 40.1311L41.8114 40.133Z" fill="white"></path>
  <path d="M29.2133 37.2764C28.4112 37.2764 27.7115 37.0985 27.1181 36.7468C25.8018 35.962 25.0383 34.3732 24.7832 31.8875C24.559 29.6995 24.704 27.067 25.1698 24.8442C25.5738 22.919 26.4165 20.3406 28.1348 18.9973L28.1522 18.9857C29.3931 18.1197 30.5992 18.4773 31.2448 19.2157C31.7898 19.8381 32.161 20.8412 32.5205 21.8096C32.7505 22.4262 32.965 23.0099 33.2163 23.4815C34.0494 24.9969 35.4739 26.2242 36.7303 27.3066C38.2688 28.6307 39.5967 29.7749 39.3145 31.0796C38.9878 32.5911 37.343 33.6986 36.3611 34.3616C35.1376 35.1869 33.8928 35.8924 32.6558 36.4646L32.6422 36.4704C31.3492 37.0077 30.203 37.2744 29.2133 37.2744V37.2764ZM28.5929 19.6003C25.8405 21.7613 25.1466 28.0392 25.5332 31.8122C25.7632 34.0427 26.4068 35.444 27.5047 36.0993C28.6103 36.7603 30.2397 36.6501 32.3484 35.7784C33.5468 35.2256 34.7549 34.5375 35.9416 33.7373C36.8288 33.1381 38.3171 32.1349 38.58 30.9211C38.7675 30.0532 37.5962 29.0462 36.2393 27.8788C34.9346 26.7558 33.454 25.4801 32.5533 23.841C32.2769 23.3191 32.0411 22.6852 31.813 22.0724C31.4787 21.1679 31.1307 20.2324 30.6765 19.7144C30.2861 19.2659 29.5052 18.9683 28.5929 19.6003Z" fill="white"></path>
  <path d="M28.2295 37.2782C27.7927 37.2782 27.3771 37.2105 26.9886 37.0714C25.5448 36.5572 24.4875 35.1462 23.7549 32.7572C23.1094 30.6542 22.7402 28.0449 22.7692 25.7718C22.7924 23.8042 23.119 21.1136 24.5435 19.461L24.5571 19.4456C25.6047 18.3554 26.8591 18.4733 27.6361 19.0706C28.2914 19.577 28.85 20.4874 29.3912 21.3688C29.7352 21.9293 30.0599 22.4589 30.3982 22.8745C31.5077 24.1985 33.1448 25.1243 34.5886 25.9438C36.3553 26.9451 37.8803 27.8091 37.8571 29.1447C37.8301 30.689 36.4307 32.0981 35.5976 32.937C34.5596 33.9826 33.4734 34.9181 32.3716 35.7183L32.36 35.7261C30.8157 36.7563 29.4337 37.2762 28.2334 37.2762L28.2295 37.2782ZM25.106 19.9636C22.8252 22.6174 23.3645 28.9108 24.4759 32.5368C25.1331 34.6804 26.0376 35.9329 27.2418 36.3601C28.4557 36.793 30.0329 36.3717 31.929 35.1056C32.996 34.3305 34.0494 33.4221 35.0583 32.4054C35.8121 31.6458 37.0782 30.372 37.0994 29.1292C37.1149 28.242 35.7716 27.4805 34.2156 26.5991C32.7176 25.7506 31.0167 24.7861 29.8164 23.3557C29.4453 22.8996 29.0896 22.3217 28.7475 21.7631C28.243 20.9416 27.7212 20.0911 27.1742 19.6698C26.7025 19.3064 25.8791 19.1653 25.1079 19.9616L25.106 19.9636Z" fill="white"></path>
  <path d="M27.3228 37.2804C27.0889 37.2804 26.8608 37.2591 26.6347 37.2127C25.1309 36.9151 23.8784 35.6742 22.8037 33.4185C21.8586 31.4334 21.1125 28.9053 20.8052 26.6535C20.5404 24.7032 20.4688 21.9933 21.6382 20.1513L21.6498 20.1339C22.5273 18.9027 23.7856 18.835 24.6419 19.3125C25.3648 19.7164 26.049 20.536 26.7139 21.3284C27.1372 21.8329 27.5354 22.3103 27.9297 22.6698C29.2228 23.818 30.9759 24.4945 32.5222 25.0937C34.4164 25.8243 36.0497 26.4583 36.2217 27.7823C36.4208 29.315 35.2437 30.9116 34.5401 31.8645C33.6664 33.0513 32.729 34.1356 31.7548 35.0885L31.7432 35.0982C30.1409 36.5459 28.6565 37.2765 27.317 37.2765H27.3189L27.3228 37.2804ZM22.2722 20.5649C21.2323 22.2137 21.3077 24.7303 21.5551 26.553C21.8508 28.7313 22.5737 31.1764 23.486 33.0957C24.4486 35.1194 25.5272 36.225 26.7816 36.4744C28.0457 36.7256 29.5436 36.0762 31.2368 34.5473C32.1801 33.6234 33.0885 32.5719 33.937 31.4199C34.573 30.5559 35.638 29.1121 35.4775 27.8828C35.3635 27.0033 33.9235 26.4467 32.2535 25.8011C30.6473 25.1787 28.8246 24.4751 27.4272 23.2342C26.9923 22.8361 26.5574 22.3181 26.1379 21.8174C25.5194 21.0772 24.8777 20.3137 24.2766 19.9754C23.7566 19.6836 22.9216 19.6662 22.2741 20.5669L22.2722 20.5649Z" fill="white"></path>
  <path d="M30.1777 59.5197C28.7764 59.5197 27.3731 58.9978 26.3043 57.9521L24.8314 56.5025C23.3586 55.076 21.2904 54.4111 19.2706 54.7436L17.2507 55.076C14.2567 55.5747 11.4058 53.5548 10.8819 50.5376L10.5495 48.5178C10.217 46.498 8.91042 44.739 7.08 43.8364L5.24958 42.9106C2.5165 41.5556 1.42444 38.2292 2.77937 35.498L3.68202 33.6676C4.60786 31.8372 4.58467 29.6511 3.6337 27.8226L2.68273 25.9922C1.2814 23.2842 2.32708 19.9578 5.03503 18.5545L6.86545 17.6036C8.69587 16.6526 9.95417 14.8705 10.2634 12.8506L10.5727 10.8308C10.7872 9.38114 11.57 8.07453 12.7588 7.21827C13.9475 6.33881 15.3971 5.98317 16.87 6.19578L18.8898 6.50504C20.9096 6.8143 22.9759 6.12427 24.4255 4.65142L25.8752 3.17858C28.0129 1.0157 31.5056 0.969316 33.6917 3.10706L35.1645 4.55671C36.6374 6.00636 38.7055 6.64807 40.7254 6.31562L42.7452 5.98317C45.7624 5.48449 48.5902 7.50433 49.114 10.5215L49.4465 12.5414C49.7789 14.5612 51.0855 16.3201 52.916 17.2228L54.7464 18.1486C57.4795 19.5036 58.5715 22.83 57.2166 25.5612L56.3139 27.3916C55.4113 29.222 55.4113 31.4081 56.3623 33.2366L57.3132 35.067C58.7146 37.7749 57.6689 41.1014 54.9609 42.5047L53.1305 43.4556C51.3001 44.4066 50.0418 46.1887 49.7325 48.2085L49.4233 50.2284C49.2087 51.678 48.4259 52.9846 47.2372 53.8409C46.0485 54.7204 44.5988 55.076 43.126 54.8634L41.1062 54.5541C39.0863 54.2449 37.0201 54.9349 35.5704 56.4077L34.1208 57.8806C33.0519 58.9727 31.6023 59.5197 30.1758 59.5197H30.1777ZM20.3163 53.6979C22.2414 53.6979 24.1182 54.4575 25.4963 55.8124L26.9692 57.2621C28.7513 59.021 31.6506 58.9959 33.4076 57.2138L34.8572 55.7409C36.5214 54.0535 38.8969 53.2707 41.226 53.6032L43.2458 53.9124C44.4577 54.1018 45.6465 53.7945 46.6206 53.0562C47.5948 52.3429 48.2365 51.2741 48.4259 50.0622L48.7352 48.0423C49.0908 45.7132 50.5405 43.6702 52.6318 42.5781L54.4623 41.6271C56.6966 40.4635 57.551 37.7073 56.4106 35.4729L55.4596 33.6425C54.3675 31.5511 54.3424 29.0326 55.3881 26.9412L56.2907 25.1108C57.4079 22.8532 56.5053 20.1201 54.2477 19.0049L52.4173 18.079C50.3027 17.0334 48.8048 15.0135 48.4259 12.6844L48.0935 10.6646C47.6895 8.19437 45.314 6.50697 42.8419 6.91094L40.822 7.2434C38.4929 7.62417 36.0942 6.88775 34.43 5.22355L32.9572 3.7739C31.1751 2.015 28.2758 2.04012 26.5188 3.82222L25.0692 5.29507C23.405 6.98246 21.0295 7.76527 18.7004 7.43282L16.6805 7.12356C15.4686 6.95733 14.2799 7.24146 13.3058 7.97982C12.3316 8.69304 11.6899 9.76192 11.5005 10.9738L11.1912 12.9937C10.8356 15.3228 9.38591 17.3658 7.29455 18.4579L5.46412 19.4088C3.22973 20.5724 2.37541 23.3287 3.5158 25.5631L4.46677 27.3935C5.55883 29.4849 5.58396 32.0034 4.53828 34.0948L3.63563 35.9252C2.51844 38.1828 3.42108 40.9158 5.67867 42.0311L7.50909 42.9569C9.62365 44.0026 11.1216 46.0225 11.5005 48.3516L11.8329 50.3714C12.2369 52.8416 14.6124 54.529 17.0845 54.125L19.1044 53.7926C19.5083 53.7211 19.9123 53.6979 20.3163 53.6979Z" fill="white"></path>
  <path d="M18.6079 14.7873C18.3934 14.6964 18.2252 14.5727 18.0977 14.4161V14.364L18.432 13.9793H18.4784C18.5712 14.0837 18.693 14.1726 18.8379 14.2441C18.9829 14.3156 19.124 14.3524 19.2593 14.3524C19.5357 14.3524 19.7097 14.2441 19.7097 14.076C19.7097 14.0006 19.6729 13.9329 19.6304 13.8962C19.6072 13.8769 19.5744 13.8575 19.5241 13.8363C19.4758 13.817 19.4371 13.8034 19.4062 13.7918C19.3753 13.7822 19.3212 13.7667 19.2516 13.7454C19.182 13.7261 19.1259 13.7087 19.0892 13.699C18.8631 13.6295 18.7026 13.556 18.521 13.4226C18.3393 13.2893 18.233 13.0883 18.233 12.837C18.233 12.5857 18.3296 12.3905 18.5268 12.2359C18.7239 12.0812 18.9771 12.0059 19.2922 12.0059C19.5144 12.0059 19.7193 12.0445 19.9068 12.1218C20.0943 12.1991 20.2412 12.3035 20.3494 12.4311V12.4775L20.017 12.8602H19.9687C19.7696 12.6553 19.5473 12.5529 19.3018 12.5509C19.0757 12.5509 18.9191 12.6476 18.9191 12.8022C18.9191 12.8892 18.9597 12.9568 19.0583 13.0109C19.1066 13.038 19.1511 13.0612 19.1917 13.0767C19.2303 13.0921 19.2864 13.1134 19.3618 13.1405C19.6787 13.241 19.8952 13.326 20.0112 13.3917C20.2721 13.5483 20.3997 13.7744 20.4016 14.0702C20.4016 14.335 20.2953 14.5437 20.0866 14.6964C19.8759 14.8491 19.613 14.9245 19.298 14.9245C19.0506 14.9245 18.8205 14.88 18.606 14.7873H18.6079Z" fill="white"></path>
  <path d="M21.1458 14.5089C20.852 14.2325 20.7031 13.8827 20.7031 13.4652C20.7031 13.0477 20.852 12.6978 21.1458 12.4195C21.4395 12.1431 21.8068 12.0059 22.2494 12.0059C22.692 12.0059 23.0554 12.145 23.3492 12.4234C23.643 12.7017 23.7918 13.0496 23.7918 13.4652C23.7918 13.8807 23.643 14.2287 23.3492 14.507C23.0554 14.7853 22.6882 14.9264 22.2494 14.9264C21.8107 14.9264 21.4395 14.7873 21.1458 14.5089ZM22.2494 14.3137C22.4891 14.3137 22.692 14.2325 22.8563 14.0721C23.0187 13.9117 23.1018 13.7087 23.1018 13.4632C23.1018 13.2178 23.0187 13.0148 22.8563 12.8544C22.692 12.6959 22.4891 12.6147 22.2494 12.6147C22.0097 12.6147 21.8068 12.6959 21.6425 12.8544C21.4782 13.0148 21.3951 13.2178 21.3951 13.4632C21.3951 13.7087 21.4782 13.9117 21.6425 14.0721C21.8068 14.2325 22.0097 14.3137 22.2494 14.3137Z" fill="white"></path>
  <path d="M24.5379 14.505C24.2441 14.2267 24.0972 13.8788 24.0972 13.4632C24.0972 13.0477 24.2421 12.6997 24.5379 12.4214C24.8297 12.145 25.1931 12.0039 25.6261 12.0039C25.8638 12.0039 26.0822 12.0522 26.2871 12.1489C26.492 12.2474 26.664 12.3808 26.8032 12.5528V12.6012L26.3857 12.9471H26.3393C26.1557 12.7249 25.916 12.6128 25.6241 12.6128C25.3864 12.6128 25.1892 12.6939 25.0249 12.8524C24.8626 13.0129 24.7814 13.2158 24.7814 13.4613C24.7814 13.7068 24.8626 13.9097 25.0249 14.0701C25.1873 14.2306 25.3864 14.3117 25.6241 14.3117C25.916 14.3117 26.1557 14.1996 26.3393 13.9774H26.3857L26.8032 14.3233V14.3697C26.5268 14.7099 26.1073 14.9225 25.6164 14.9225C25.1892 14.9225 24.8297 14.7834 24.5359 14.5031L24.5379 14.505Z" fill="white"></path>
  <path d="M27.2207 12.0581H27.8953V14.8724H27.2207V12.0581Z" fill="white"></path>
  <path d="M28.8132 14.5089C28.5194 14.2325 28.3706 13.8827 28.3706 13.4652C28.3706 13.0477 28.5194 12.6978 28.8132 12.4195C29.107 12.1431 29.4743 12.0059 29.9169 12.0059C30.3595 12.0059 30.7229 12.145 31.0167 12.4234C31.3105 12.7017 31.4593 13.0496 31.4593 13.4652C31.4593 13.8807 31.3105 14.2287 31.0167 14.507C30.7229 14.7853 30.3557 14.9264 29.9169 14.9264C29.4781 14.9264 29.107 14.7873 28.8132 14.5089ZM29.9169 14.3137C30.1566 14.3137 30.3595 14.2325 30.5238 14.0721C30.6862 13.9117 30.7693 13.7087 30.7693 13.4632C30.7693 13.2178 30.6862 13.0148 30.5238 12.8544C30.3595 12.6959 30.1566 12.6147 29.9169 12.6147C29.6772 12.6147 29.4743 12.6959 29.31 12.8544C29.1457 13.0148 29.0626 13.2178 29.0626 13.4632C29.0626 13.7087 29.1457 13.9117 29.31 14.0721C29.4743 14.2325 29.6772 14.3137 29.9169 14.3137Z" fill="white"></path>
  <path d="M32.2114 14.7873C31.9969 14.6964 31.8287 14.5727 31.7012 14.4161V14.364L32.0356 13.9793H32.0819C32.1747 14.0837 32.2965 14.1726 32.4415 14.2441C32.5864 14.3156 32.7275 14.3524 32.8628 14.3524C33.1392 14.3524 33.3132 14.2441 33.3132 14.076C33.3132 14.0006 33.2765 13.9329 33.2339 13.8962C33.2107 13.8769 33.1779 13.8575 33.1276 13.8363C33.0793 13.817 33.0406 13.8034 33.0097 13.7918C32.9788 13.7822 32.9247 13.7667 32.8551 13.7454C32.7855 13.7261 32.7295 13.7087 32.6927 13.699C32.4666 13.6295 32.3062 13.556 32.1245 13.4226C31.9428 13.2893 31.8365 13.0883 31.8365 12.837C31.8365 12.5857 31.9331 12.3905 32.1303 12.2359C32.3274 12.0812 32.5806 12.0059 32.8957 12.0059C33.118 12.0059 33.3228 12.0445 33.5103 12.1218C33.6978 12.1991 33.8447 12.3035 33.953 12.4311V12.4775L33.6205 12.8602H33.5722C33.3731 12.6553 33.1508 12.5529 32.9053 12.5509C32.6792 12.5509 32.5226 12.6476 32.5226 12.8022C32.5226 12.8892 32.5632 12.9568 32.6618 13.0109C32.7101 13.038 32.7546 13.0612 32.7952 13.0767C32.8338 13.0921 32.8899 13.1134 32.9653 13.1405C33.2823 13.241 33.4987 13.326 33.6147 13.3917C33.8756 13.5483 34.0032 13.7744 34.0051 14.0702C34.0051 14.335 33.8988 14.5437 33.6901 14.6964C33.4794 14.8491 33.2165 14.9245 32.9015 14.9245C32.6541 14.9245 32.4241 14.88 32.2095 14.7873H32.2114Z" fill="white"></path>
  <path d="M36.6609 12.0581C37.1152 12.0581 37.4747 12.1876 37.7433 12.4427C38.0101 12.6979 38.1435 13.0381 38.1435 13.4594C38.1435 13.8808 38.0101 14.2287 37.7433 14.4858C37.4747 14.7429 37.1152 14.8724 36.6609 14.8724H35.4316V12.0581H36.6609ZM36.6397 14.3176C36.8852 14.3176 37.0823 14.2422 37.2311 14.0876C37.38 13.9349 37.4534 13.7281 37.4534 13.4633C37.4534 13.1985 37.38 12.9936 37.2311 12.839C37.0804 12.6863 36.8852 12.6109 36.6397 12.6109H36.1062V14.3176H36.6397Z" fill="white"></path>
  <path d="M40.6792 12.6109H39.303V13.1946H40.368V13.7242H39.303V14.3176H40.6888V14.8724H38.6284V12.0581H40.6792V12.6128V12.6109Z" fill="white"></path>
  <path d="M41.1975 13.3588C41.1143 13.2776 41.0757 13.181 41.0757 13.065C41.0757 12.949 41.1163 12.8563 41.1975 12.7732C41.2786 12.692 41.3753 12.6533 41.4913 12.6533C41.6072 12.6533 41.7 12.6939 41.7812 12.7732C41.8624 12.8563 41.901 12.9529 41.901 13.065C41.901 13.1771 41.8604 13.2776 41.7812 13.3588C41.7 13.4419 41.6034 13.4806 41.4913 13.4806C41.3791 13.4806 41.2767 13.44 41.1975 13.3588ZM41.1975 14.8027C41.1143 14.7215 41.0757 14.6248 41.0757 14.5127C41.0757 14.4006 41.1163 14.3001 41.1975 14.217C41.2786 14.1339 41.3753 14.0972 41.4913 14.0972C41.6072 14.0972 41.7 14.1378 41.7812 14.217C41.8624 14.3001 41.901 14.3968 41.901 14.5127C41.901 14.6287 41.8604 14.7215 41.7812 14.8027C41.7 14.8858 41.6034 14.9244 41.4913 14.9244C41.3791 14.9244 41.2767 14.8838 41.1975 14.8027Z" fill="white"></path>
</svg>
